<svg version="1.1" xmlns="http://www.w3.org/2000/svg" style="display: block;" viewBox="0 0 2048 2048" width="1024" height="1024" preserveAspectRatio="none" xmlns:c2pa="http://c2pa.org/manifest"><metadata><c2pa:manifest>AAAzs2p1bWIAAAAeanVtZGMycGEAEQAQgAAAqgA4m3EDYzJwYQAAADONanVtYgAAAEdqdW1kYzJtYQARABCAAACqADibcQN1cm46YzJwYTozYzhmZTg1Zi0yMzdjLTQ2NTMtYmRiMi0wMWQyOGM4ZTI4YzUAAAAB4mp1bWIAAAApanVtZGMyYXMAEQAQgAAAqgA4m3EDYzJwYS5hc3NlcnRpb25zAAAAAO1qdW1iAAAAQWp1bWRjYm9yABEAEIAAAKoAOJtxE2MycGEuYWN0aW9ucy52MgAAAAAYYzJzaM/0bFjBpH/OTfMT/Acj2UUAAACkY2JvcqFnYWN0aW9uc4GjZmFjdGlvbmxjMnBhLmNyZWF0ZWRxZGlnaXRhbFNvdXJjZVR5cGV4Rmh0dHA6Ly9jdi5pcHRjLm9yZy9uZXdzY29kZXMvZGlnaXRhbHNvdXJjZXR5cGUvdHJhaW5lZEFsZ29yaXRobWljTWVkaWFrZGVzY3JpcHRpb252Q3JlYXRlZCBieSBSZWNyYWZ0IEFJLgAAAMRqdW1iAAAAQGp1bWRjYm9yABEAEIAAAKoAOJtxE2MycGEuaGFzaC5kYXRhAAAAABhjMnNoFEzDKdEXjRRwozO2Y+BC1AAAAHxjYm9ypWpleGNsdXNpb25zgaJlc3RhcnQY22ZsZW5ndGgZRPBkbmFtZW5qdW1iZiBtYW5pZmVzdGNhbGdmc2hhMjU2ZGhhc2hYIIC+WVBwTDOt2MBOW0m6EMjSKq1aCG+qWHuhS9S9XNkxY3BhZEkAAAAAAAAAAAAAAAI0anVtYgAAACdqdW1kYzJjbAARABCAAACqADibcQNjMnBhLmNsYWltLnYyAAAAAgVjYm9ypmppbnN0YW5jZUlEeCx4bXA6aWlkOmVlOTJlNmNhLWVhYzMtNDg0ZC04YTBhLTBiOTVlZmQ1ZWEyN3RjbGFpbV9nZW5lcmF0b3JfaW5mb6NkbmFtZWpyZWNyYWZ0LmFpZ3ZlcnNpb254KDgxY2U4MmUyYzVjM2NiZmJlOGM2ZmJlMTc5ZDVmOGQ5MWM0MDljZTF3b3JnLmNvbnRlbnRhdXRoLmMycGFfcnNmMC45MC43aXNpZ25hdHVyZXhNc2VsZiNqdW1iZj0vYzJwYS91cm46YzJwYTozYzhmZTg1Zi0yMzdjLTQ2NTMtYmRiMi0wMWQyOGM4ZTI4YzUvYzJwYS5zaWduYXR1cmVyY3JlYXRlZF9hc3NlcnRpb25zgqJjdXJseCpzZWxmI2p1bWJmPWMycGEuYXNzZXJ0aW9ucy9jMnBhLmFjdGlvbnMudjJkaGFzaFggsJ/X7xQwaFbJeapNvwxiAFLycLc3vmFK6fa6EsRmBcSiY3VybHgpc2VsZiNqdW1iZj1jMnBhLmFzc2VydGlvbnMvYzJwYS5oYXNoLmRhdGFkaGFzaFggBg5dXIxmBO6d7gWP4XzPdLKfdBEB8YNe8FVsJz6cqqJoZGM6dGl0bGV4GlJlY3JhZnQgQUkgR2VuZXJhdGVkIEltYWdlY2FsZ2ZzaGEyNTYAAC8oanVtYgAAAChqdW1kYzJjcwARABCAAACqADibcQNjMnBhLnNpZ25hdHVyZQAAAC74Y2JvctKEWQPsogEmGCGCWQH0MIIB8DCCAZWgAwIBAgIUJcFH1Va4pZJDhzepwEtzPPNj2YMwCgYIKoZIzj0EAwIwQTELMAkGA1UEBhMCVVMxEzARBgNVBAoMClJlY3JhZnQgQUkxHTAbBgNVBAMMFFJlY3JhZnQgQzJQQSBSb290IENBMB4XDTI2MDkxMDE2NTIzNFoXDTI3MDkxMDE2NTIzNFowNzELMAkGA1UEBhMCVVMxEzARBgNVBAoMClJlY3JhZnQgQUkxEzARBgNVBAMMCnJlY3JhZnQuYWkwWTATBgcqhkjOPQIBBggqhkjOPQMBBwNCAASoOPdqG3YmNRdGd+dltfh1ikcE/nkLm8YK10H29taFa8iegusHYB1678yl5Bs18hLaV/Fhd+Ni32xAlnHdbimFo3UwczAMBgNVHRMBAf8EAjAAMA4GA1UdDwEB/wQEAwIGwDATBgNVHSUEDDAKBggrBgEFBQcDBDAdBgNVHQ4EFgQUgVwhvbEXPSSgCubOfUHxCtuoVAQwHwYDVR0jBBgwFoAUc9yF+sfWlRHeWv2Iucaec5jwdAgwCgYIKoZIzj0EAwIDSQAwRgIhAJltDpQN+vbXITLxb+8BNwSL6/5WktO4Sevkb0VXjtfWAiEAqhoz7z/sN32NxdnnZsQVTeu3P7CgGtJdXFx283fp08RZAewwggHoMIIBjaADAgECAhQAydo/NKOQWWu/4V5FktVQHX7jTDAKBggqhkjOPQQDAjBBMQswCQYDVQQGEwJVUzETMBEGA1UECgwKUmVjcmFmdCBBSTEdMBsGA1UEAwwUUmVjcmFmdCBDMlBBIFJvb3QgQ0EwHhcNMjYwOTEwMTY1MjM0WhcNMzYwOTA3MTY1MjM0WjBBMQswCQYDVQQGEwJVUzETMBEGA1UECgwKUmVjcmFmdCBBSTEdMBsGA1UEAwwUUmVjcmFmdCBDMlBBIFJvb3QgQ0EwWTATBgcqhkjOPQIBBggqhkjOPQMBBwNCAAQbQ+eF6fkpnHhTwrMxSBLh/JhROWkzsC8L8jN1r1Rlf8oECvzEFk3WujloPtNs3PLADriqR5rGtd+8giFuiTLno2MwYTAfBgNVHSMEGDAWgBRz3IX6x9aVEd5a/Yi5xp5zmPB0CDAPBgNVHRMBAf8EBTADAQH/MA4GA1UdDwEB/wQEAwIBhjAdBgNVHQ4EFgQUc9yF+sfWlRHeWv2Iucaec5jwdAgwCgYIKoZIzj0EAwIDSQAwRgIhAND2Z+xryBRnMbxk8eAzMcAq8bzl0rfA9Y2z7q5QoEUeAiEA6ZbI3e47h5clRZaARSOOotKXsK/YQMWC3vj91d3bmlOhY3BhZFkqtAAAAAAAAAAAAAAAAAAAAAAAAAAAAAAAAAAAAAAAAAAAAAAAAAAAAAAAAAAAAAAAAAAAAAAAAAAAAAAAAAAAAAAAAAAAAAAAAAAAAAAAAAAAAAAAAAAAAAAAAAAAAAAAAAAAAAAAAAAAAAAAAAAAAAAAAAAAAAAAAAAAAAAAAAAAAAAAAAAAAAAAAAAAAAAAAAAAAAAAAAAAAAAAAAAAAAAAAAAAAAAAAAAAAAAAAAAAAAAAAAAAAAAAAAAAAAAAAAAAAAAAAAAAAAAAAAAAAAAAAAAAAAAAAAAAAAAAAAAAAAAAAAAAAAAAAAAAAAAAAAAAAAAAAAAAAAAAAAAAAAAAAAAAAAAAAAAAAAAAAAAAAAAAAAAAAAAAAAAAAAAAAAAAAAAAAAAAAAAAAAAAAAAAAAAAAAAAAAAAAAAAAAAAAAAAAAAAAAAAAAAAAAAAAAAAAAAAAAAAAAAAAAAAAAAAAAAAAAAAAAAAAAAAAAAAAAAAAAAAAAAAAAAAAAAAAAAAAAAAAAAAAAAAAAAAAAAAAAAAAAAAAAAAAAAAAAAAAAAAAAAAAAAAAAAAAAAAAAAAAAAAAAAAAAAAAAAAAAAAAAAAAAAAAAAAAAAAAAAAAAAAAAAAAAAAAAAAAAAAAAAAAAAAAAAAAAAAAAAAAAAAAAAAAAAAAAAAAAAAAAAAAAAAAAAAAAAAAAAAAAAAAAAAAAAAAAAAAAAAAAAAAAAAAAAAAAAAAAAAAAAAAAAAAAAAAAAAAAAAAAAAAAAAAAAAAAAAAAAAAAAAAAAAAAAAAAAAAAAAAAAAAAAAAAAAAAAAAAAAAAAAAAAAAAAAAAAAAAAAAAAAAAAAAAAAAAAAAAAAAAAAAAAAAAAAAAAAAAAAAAAAAAAAAAAAAAAAAAAAAAAAAAAAAAAAAAAAAAAAAAAAAAAAAAAAAAAAAAAAAAAAAAAAAAAAAAAAAAAAAAAAAAAAAAAAAAAAAAAAAAAAAAAAAAAAAAAAAAAAAAAAAAAAAAAAAAAAAAAAAAAAAAAAAAAAAAAAAAAAAAAAAAAAAAAAAAAAAAAAAAAAAAAAAAAAAAAAAAAAAAAAAAAAAAAAAAAAAAAAAAAAAAAAAAAAAAAAAAAAAAAAAAAAAAAAAAAAAAAAAAAAAAAAAAAAAAAAAAAAAAAAAAAAAAAAAAAAAAAAAAAAAAAAAAAAAAAAAAAAAAAAAAAAAAAAAAAAAAAAAAAAAAAAAAAAAAAAAAAAAAAAAAAAAAAAAAAAAAAAAAAAAAAAAAAAAAAAAAAAAAAAAAAAAAAAAAAAAAAAAAAAAAAAAAAAAAAAAAAAAAAAAAAAAAAAAAAAAAAAAAAAAAAAAAAAAAAAAAAAAAAAAAAAAAAAAAAAAAAAAAAAAAAAAAAAAAAAAAAAAAAAAAAAAAAAAAAAAAAAAAAAAAAAAAAAAAAAAAAAAAAAAAAAAAAAAAAAAAAAAAAAAAAAAAAAAAAAAAAAAAAAAAAAAAAAAAAAAAAAAAAAAAAAAAAAAAAAAAAAAAAAAAAAAAAAAAAAAAAAAAAAAAAAAAAAAAAAAAAAAAAAAAAAAAAAAAAAAAAAAAAAAAAAAAAAAAAAAAAAAAAAAAAAAAAAAAAAAAAAAAAAAAAAAAAAAAAAAAAAAAAAAAAAAAAAAAAAAAAAAAAAAAAAAAAAAAAAAAAAAAAAAAAAAAAAAAAAAAAAAAAAAAAAAAAAAAAAAAAAAAAAAAAAAAAAAAAAAAAAAAAAAAAAAAAAAAAAAAAAAAAAAAAAAAAAAAAAAAAAAAAAAAAAAAAAAAAAAAAAAAAAAAAAAAAAAAAAAAAAAAAAAAAAAAAAAAAAAAAAAAAAAAAAAAAAAAAAAAAAAAAAAAAAAAAAAAAAAAAAAAAAAAAAAAAAAAAAAAAAAAAAAAAAAAAAAAAAAAAAAAAAAAAAAAAAAAAAAAAAAAAAAAAAAAAAAAAAAAAAAAAAAAAAAAAAAAAAAAAAAAAAAAAAAAAAAAAAAAAAAAAAAAAAAAAAAAAAAAAAAAAAAAAAAAAAAAAAAAAAAAAAAAAAAAAAAAAAAAAAAAAAAAAAAAAAAAAAAAAAAAAAAAAAAAAAAAAAAAAAAAAAAAAAAAAAAAAAAAAAAAAAAAAAAAAAAAAAAAAAAAAAAAAAAAAAAAAAAAAAAAAAAAAAAAAAAAAAAAAAAAAAAAAAAAAAAAAAAAAAAAAAAAAAAAAAAAAAAAAAAAAAAAAAAAAAAAAAAAAAAAAAAAAAAAAAAAAAAAAAAAAAAAAAAAAAAAAAAAAAAAAAAAAAAAAAAAAAAAAAAAAAAAAAAAAAAAAAAAAAAAAAAAAAAAAAAAAAAAAAAAAAAAAAAAAAAAAAAAAAAAAAAAAAAAAAAAAAAAAAAAAAAAAAAAAAAAAAAAAAAAAAAAAAAAAAAAAAAAAAAAAAAAAAAAAAAAAAAAAAAAAAAAAAAAAAAAAAAAAAAAAAAAAAAAAAAAAAAAAAAAAAAAAAAAAAAAAAAAAAAAAAAAAAAAAAAAAAAAAAAAAAAAAAAAAAAAAAAAAAAAAAAAAAAAAAAAAAAAAAAAAAAAAAAAAAAAAAAAAAAAAAAAAAAAAAAAAAAAAAAAAAAAAAAAAAAAAAAAAAAAAAAAAAAAAAAAAAAAAAAAAAAAAAAAAAAAAAAAAAAAAAAAAAAAAAAAAAAAAAAAAAAAAAAAAAAAAAAAAAAAAAAAAAAAAAAAAAAAAAAAAAAAAAAAAAAAAAAAAAAAAAAAAAAAAAAAAAAAAAAAAAAAAAAAAAAAAAAAAAAAAAAAAAAAAAAAAAAAAAAAAAAAAAAAAAAAAAAAAAAAAAAAAAAAAAAAAAAAAAAAAAAAAAAAAAAAAAAAAAAAAAAAAAAAAAAAAAAAAAAAAAAAAAAAAAAAAAAAAAAAAAAAAAAAAAAAAAAAAAAAAAAAAAAAAAAAAAAAAAAAAAAAAAAAAAAAAAAAAAAAAAAAAAAAAAAAAAAAAAAAAAAAAAAAAAAAAAAAAAAAAAAAAAAAAAAAAAAAAAAAAAAAAAAAAAAAAAAAAAAAAAAAAAAAAAAAAAAAAAAAAAAAAAAAAAAAAAAAAAAAAAAAAAAAAAAAAAAAAAAAAAAAAAAAAAAAAAAAAAAAAAAAAAAAAAAAAAAAAAAAAAAAAAAAAAAAAAAAAAAAAAAAAAAAAAAAAAAAAAAAAAAAAAAAAAAAAAAAAAAAAAAAAAAAAAAAAAAAAAAAAAAAAAAAAAAAAAAAAAAAAAAAAAAAAAAAAAAAAAAAAAAAAAAAAAAAAAAAAAAAAAAAAAAAAAAAAAAAAAAAAAAAAAAAAAAAAAAAAAAAAAAAAAAAAAAAAAAAAAAAAAAAAAAAAAAAAAAAAAAAAAAAAAAAAAAAAAAAAAAAAAAAAAAAAAAAAAAAAAAAAAAAAAAAAAAAAAAAAAAAAAAAAAAAAAAAAAAAAAAAAAAAAAAAAAAAAAAAAAAAAAAAAAAAAAAAAAAAAAAAAAAAAAAAAAAAAAAAAAAAAAAAAAAAAAAAAAAAAAAAAAAAAAAAAAAAAAAAAAAAAAAAAAAAAAAAAAAAAAAAAAAAAAAAAAAAAAAAAAAAAAAAAAAAAAAAAAAAAAAAAAAAAAAAAAAAAAAAAAAAAAAAAAAAAAAAAAAAAAAAAAAAAAAAAAAAAAAAAAAAAAAAAAAAAAAAAAAAAAAAAAAAAAAAAAAAAAAAAAAAAAAAAAAAAAAAAAAAAAAAAAAAAAAAAAAAAAAAAAAAAAAAAAAAAAAAAAAAAAAAAAAAAAAAAAAAAAAAAAAAAAAAAAAAAAAAAAAAAAAAAAAAAAAAAAAAAAAAAAAAAAAAAAAAAAAAAAAAAAAAAAAAAAAAAAAAAAAAAAAAAAAAAAAAAAAAAAAAAAAAAAAAAAAAAAAAAAAAAAAAAAAAAAAAAAAAAAAAAAAAAAAAAAAAAAAAAAAAAAAAAAAAAAAAAAAAAAAAAAAAAAAAAAAAAAAAAAAAAAAAAAAAAAAAAAAAAAAAAAAAAAAAAAAAAAAAAAAAAAAAAAAAAAAAAAAAAAAAAAAAAAAAAAAAAAAAAAAAAAAAAAAAAAAAAAAAAAAAAAAAAAAAAAAAAAAAAAAAAAAAAAAAAAAAAAAAAAAAAAAAAAAAAAAAAAAAAAAAAAAAAAAAAAAAAAAAAAAAAAAAAAAAAAAAAAAAAAAAAAAAAAAAAAAAAAAAAAAAAAAAAAAAAAAAAAAAAAAAAAAAAAAAAAAAAAAAAAAAAAAAAAAAAAAAAAAAAAAAAAAAAAAAAAAAAAAAAAAAAAAAAAAAAAAAAAAAAAAAAAAAAAAAAAAAAAAAAAAAAAAAAAAAAAAAAAAAAAAAAAAAAAAAAAAAAAAAAAAAAAAAAAAAAAAAAAAAAAAAAAAAAAAAAAAAAAAAAAAAAAAAAAAAAAAAAAAAAAAAAAAAAAAAAAAAAAAAAAAAAAAAAAAAAAAAAAAAAAAAAAAAAAAAAAAAAAAAAAAAAAAAAAAAAAAAAAAAAAAAAAAAAAAAAAAAAAAAAAAAAAAAAAAAAAAAAAAAAAAAAAAAAAAAAAAAAAAAAAAAAAAAAAAAAAAAAAAAAAAAAAAAAAAAAAAAAAAAAAAAAAAAAAAAAAAAAAAAAAAAAAAAAAAAAAAAAAAAAAAAAAAAAAAAAAAAAAAAAAAAAAAAAAAAAAAAAAAAAAAAAAAAAAAAAAAAAAAAAAAAAAAAAAAAAAAAAAAAAAAAAAAAAAAAAAAAAAAAAAAAAAAAAAAAAAAAAAAAAAAAAAAAAAAAAAAAAAAAAAAAAAAAAAAAAAAAAAAAAAAAAAAAAAAAAAAAAAAAAAAAAAAAAAAAAAAAAAAAAAAAAAAAAAAAAAAAAAAAAAAAAAAAAAAAAAAAAAAAAAAAAAAAAAAAAAAAAAAAAAAAAAAAAAAAAAAAAAAAAAAAAAAAAAAAAAAAAAAAAAAAAAAAAAAAAAAAAAAAAAAAAAAAAAAAAAAAAAAAAAAAAAAAAAAAAAAAAAAAAAAAAAAAAAAAAAAAAAAAAAAAAAAAAAAAAAAAAAAAAAAAAAAAAAAAAAAAAAAAAAAAAAAAAAAAAAAAAAAAAAAAAAAAAAAAAAAAAAAAAAAAAAAAAAAAAAAAAAAAAAAAAAAAAAAAAAAAAAAAAAAAAAAAAAAAAAAAAAAAAAAAAAAAAAAAAAAAAAAAAAAAAAAAAAAAAAAAAAAAAAAAAAAAAAAAAAAAAAAAAAAAAAAAAAAAAAAAAAAAAAAAAAAAAAAAAAAAAAAAAAAAAAAAAAAAAAAAAAAAAAAAAAAAAAAAAAAAAAAAAAAAAAAAAAAAAAAAAAAAAAAAAAAAAAAAAAAAAAAAAAAAAAAAAAAAAAAAAAAAAAAAAAAAAAAAAAAAAAAAAAAAAAAAAAAAAAAAAAAAAAAAAAAAAAAAAAAAAAAAAAAAAAAAAAAAAAAAAAAAAAAAAAAAAAAAAAAAAAAAAAAAAAAAAAAAAAAAAAAAAAAAAAAAAAAAAAAAAAAAAAAAAAAAAAAAAAAAAAAAAAAAAAAAAAAAAAAAAAAAAAAAAAAAAAAAAAAAAAAAAAAAAAAAAAAAAAAAAAAAAAAAAAAAAAAAAAAAAAAAAAAAAAAAAAAAAAAAAAAAAAAAAAAAAAAAAAAAAAAAAAAAAAAAAAAAAAAAAAAAAAAAAAAAAAAAAAAAAAAAAAAAAAAAAAAAAAAAAAAAAAAAAAAAAAAAAAAAAAAAAAAAAAAAAAAAAAAAAAAAAAAAAAAAAAAAAAAAAAAAAAAAAAAAAAAAAAAAAAAAAAAAAAAAAAAAAAAAAAAAAAAAAAAAAAAAAAAAAAAAAAAAAAAAAAAAAAAAAAAAAAAAAAAAAAAAAAAAAAAAAAAAAAAAAAAAAAAAAAAAAAAAAAAAAAAAAAAAAAAAAAAAAAAAAAAAAAAAAAAAAAAAAAAAAAAAAAAAAAAAAAAAAAAAAAAAAAAAAAAAAAAAAAAAAAAAAAAAAAAAAAAAAAAAAAAAAAAAAAAAAAAAAAAAAAAAAAAAAAAAAAAAAAAAAAAAAAAAAAAAAAAAAAAAAAAAAAAAAAAAAAAAAAAAAAAAAAAAAAAAAAAAAAAAAAAAAAAAAAAAAAAAAAAAAAAAAAAAAAAAAAAAAAAAAAAAAAAAAAAAAAAAAAAAAAAAAAAAAAAAAAAAAAAAAAAAAAAAAAAAAAAAAAAAAAAAAAAAAAAAAAAAAAAAAAAAAAAAAAAAAAAAAAAAAAAAAAAAAAAAAAAAAAAAAAAAAAAAAAAAAAAAAAAAAAAAAAAAAAAAAAAAAAAAAAAAAAAAAAAAAAAAAAAAAAAAAAAAAAAAAAAAAAAAAAAAAAAAAAAAAAAAAAAAAAAAAAAAAAAAAAAAAAAAAAAAAAAAAAAAAAAAAAAAAAAAAAAAAAAAAAAAAAAAAAAAAAAAAAAAAAAAAAAAAAAAAAAAAAAAAAAAAAAAAAAAAAAAAAAAAAAAAAAAAAAAAAAAAAAAAAAAAAAAAAAAAAAAAAAAAAAAAAAAAAAAAAAAAAAAAAAAAAAAAAAAAAAAAAAAAAAAAAAAAAAAAAAAAAAAAAAAAAAAAAAAAAAAAAAAAAAAAAAAAAAAAAAAAAAAAAAAAAAAAAAAAAAAAAAAAAAAAAAAAAAAAAAAAAAAAAAAAAAAAAAAAAAAAAAAAAAAAAAAAAAAAAAAAAAAAAAAAAAAAAAAAAAAAAAAAAAAAAAAAAAAAAAAAAAAAAAAAAAAAAAAAAAAAAAAAAAAAAAAAAAAAAAAAAAAAAAAAAAAAAAAAAAAAAAAAAAAAAAAAAAAAAAAAAAAAAAAAAAAAAAAAAAAAAAAAAAAAAAAAAAAAAAAAAAAAAAAAAAAAAAAAAAAAAAAAAAAAAAAAAAAAAAAAAAAAAAAAAAAAAAAAAAAAAAAAAAAAAAAAAAAAAAAAAAAAAAAAAAAAAAAAAAAAAAAAAAAAAAAAAAAAAAAAAAAAAAAAAAAAAAAAAAAAAAAAAAAAAAAAAAAAAAAAAAAAAAAAAAAAAAAAAAAAAAAAAAAAAAAAAAAAAAAAAAAAAAAAAAAAAAAAAAAAAAAAAAAAAAAAAAAAAAAAAAAAAAAAAAAAAAAAAAAAAAAAAAAAAAAAAAAAAAAAAAAAAAAAAAAAAAAAAAAAAAAAAAAAAAAAAAAAAAAAAAAAAAAAAAAAAAAAAAAAAAAAAAAAAAAAAAAAAAAAAAAAAAAAAAAAAAAAAAAAAAAAAAAAAAAAAAAAAAAAAAAAAAAAAAAAAAAAAAAAAAAAAAAAAAAAAAAAAAAAAAAAAAAAAAAAAAAAAAAAAAAAAAAAAAAAAAAAAAAAAAAAAAAAAAAAAAAAAAAAAAAAAAAAAAAAAAAAAAAAAAAAAAAAAAAAAAAAAAAAAAAAAAAAAAAAAAAAAAAAAAAAAAAAAAAAAAAAAAAAAAAAAAAAAAAAAAAAAAAAAAAAAAAAAAAAAAAAAAAAAAAAAAAAAAAAAAAAAAAAAAAAAAAAAAAAAAAAAAAAAAAAAAAAAAAAAAAAAAAAAAAAAAAAAAAAAAAAAAAAAAAAAAAAAAAAAAAAAAAAAAAAAAAAAAAAAAAAAAAAAAAAAAAAAAAAAAAAAAAAAAAAAAAAAAAAAAAAAAAAAAAAAAAAAAAAAAAAAAAAAAAAAAAAAAAAAAAAAAAAAAAAAAAAAAAAAAAAAAAAAAAAAAAAAAAAAAAAAAAAAAAAAAAAAAAAAAAAAAAAAAAAAAAAAAAAAAAAAAAAAAAAAAAAAAAAAAAAAAAAAAAAAAAAAAAAAAAAAAAAAAAAAAAAAAAAAAAAAAAAAAAAAAAAAAAAAAAAAAAAAAAAAAAAAAAAAAAAAAAAAAAAAAAAAAAAAAAAAAAAAAAAAAAAAAAAAAAAAAAAAAAAAAAAAAAAAAAAAAAAAAAAAAAAAAAAAAAAAAAAAAAAAAAAAAAAAAAAAAAAAAAAAAAAAAAAAAAAAAAAAAAAAAAAAAAAAAAAAAAAAAAAAAAAAAAAAAAAAAAAAAAAAAAAAAAAAAAAAAAAAAAAAAAAAAAAAAAAAAAAAAAAAAAAAAAAAAAAAAAAAAAAAAAAAAAAAAAAAAAAAAAAAAAAAAAAAAAAAAAAAAAAAAAAAAAAAAAAAAAAAAAAAAAAAAAAAAAAAAAAAAAAAAAAAAAAAAAAAAAAAAAAAAAAAAAAAAAAAAAAAAAAAAAAAAAAAAAAAAAAAAAAAAAAAAAAAAAAAAAAAAAAAAAAAAAAAAAAAAAAAAAAAAAAAAAAAAAAAAAAAAAAAAAAAAAAAAAAAAAAAAAAAAAAAAAAAAAAAAAAAAAAAAAAAAAAAAAAAAAAAAAAAAAAAAAAAAAAAAAAAAAAAAAAAAAAAAAAAAAAAAAAAAAAAAAAAAAAAAAAAAAAAAAAAAAAAAAAAAAAAAAAAAAAAAAAAAAAAAAAAAAAAAAAAAAAAAAAAAAAAAAAAAAAAAAAAAAAAAAAAAAAAAAAAAAAAAAAAAAAAAAAAAAAAAAAAAAAAAAAAAAAAAAAAAAAAAAAAAAAAAAAAAAAAAAAAAAAAAAAAAAAAAAAAAAAAAAAAAAAAAAAAAAAAAAAAAAAAAAAAAAAAAAAAAAAAAAAAAAAAAAAAAAAAAAAAAAAAAAAAAAAAAAAAAAAAAAAAAAAAAAAAAAAAAAAAAAAAAAAAAAAAAAAAAAAAAAAAAAAAAAAAAAAAAAAAAAAAAAAAAAAAAAAAAAAAAAAAAAAAAAAAAAAAAAAAAAAAAAAAAAAAAAAAAAAAAAAAAAAAAAAAAAAAAAAAAAAAAAAAAAAAAAAAAAAAAAAAAAAAAAAAAAAAAAAAAAAAAAAAAAAAAAAAAAAAAAAAAAAAAAAAAAAAAAAAAAAAAAAAAAAAAAAAAAAAAAAAAAAAAAAAAAAAAAAAAAAAAAAAAAAAAAAAAAAAAAAAAAAAAAAAAAAAAAAAAAAAAAAAAAAAAAAAAAAAAAAAAAAAAAAAAAAAAAAAAAAAAAAAAAAAAAAAAAAAAAAAAAAAAAAAAAAAAAAAAAAAAAAAAAAAAAAAAAAAAAAAAAAAAAAAAAAAAAAAAAAAAAAAAAAAAAAAAAAAAAAAAAAAAAAAAAAAAAAAAAAAAAAAAAAAAAAAAAAAAAAAAAAAAAAAAAAAAAAAAAAAAAAAAAAAAAAAAAAAAAAAAAAAAAAAAAAAAAAAAAAAAAAAAAAAAAAAAAAAAAAAAAAAAAAAAAAAAAAAAAAAAAAAAAAAAAAAAAAAAAAAAAAAAAAAAAAAAAAAAAAAAAAAAAAAAAAAAAAAAAAAAAAAAAAAAAAAAAAAAAAAAAAAAAAAAAAAAAAAAAAAAAAAAAAAAAAAAAAAAAAAAAAAAAAAAAAAAAAAAAAAAAAAAAAAAAAAAAAAAAAAAAAAAAAAAAAAAAAAAAAAAAAAAAAAAAAAAAAAAAAAAAAAAAAAAAAAAAAAAAAAAAAAAAAAAAAAAAAAAAAAAAAAAAAAAAAAAAAAAAAAAAAAAAAAAAAAAAAAAAAAAAAAAAAAAAAAAAAAAAAAAAAAAAAAAAAAAAAAAAAAAAAAAAAAAAAAAAAAAAAAAAAAAAAAAAAAAAAAAAAAAAAAAAAAAAAAAAAAAAAAAAAAAAAAAAAAAAAAAAAAAAAAAAAAAAAAAAAAAAAAAAAAAAAAAAAAAAAAAAAAAAAAAAAAAAAAAAAAAAAAAAAAAAAAAAAAAAAAAAAAAAAAAAAAAAAAAAAAAAAAAAAAAAAAAAAAAAAAAAAAAAAAAAAAAAAAAAAAAAAAAAAAAAAAAAAAAAAAAAAAAAAAAAAAAAAAAAAAAAAAAAAAAAAAAAAAAAAAAAAAAAAAAAAAAAAAAAAAAAAAAAAAAAAAAAAAAAAAAAAAAAAAAAAAAAAAAAAAAAAAAAAAAAAAAAAAAAAAAAAAAAAAAAAAAAAAAAAAAAAAAAAAAAAAAAAAAAAAAAAAAAAAAAAAAAAAAAAAAAAAAAAAAAAAAAAAAAAAAAAAAAAAAAAAAAAAAAAAAAAAAAAAAAAAAAAAAAAAAAAAAAAAAAAAAAAAAAAAAAAAAAAAAAAAAAAAAAAAAAAAAAAAAAAAAAAAAAAAAAAAAAAAAAAAAAAAAAAAAAAAAAAAAAAAAAAAAAAAAAAAAAAAAAAAAAAAAAAAAAAAAAAAAAAAAAAAAAAAAAAAAAAAAAAAAAAAAAAAAAAAAAAAAAAAAAAAAAAAAAAAAAAAAAAAAAAAAAAAAAAAAAAAAAAAAAAAAAAAAAAAAAAAAAAAAAAAAAAAAAAAAAAAAAAAAAAAAAAAAAAAAAAAAAAAAAAAAAAAAAAAAAAAAAAAAAAAAAAAAAAAAAAAAAAAAAAAAAAAAAAAAAAAAAAAAAAAAAAAAAAAAAAAAAAAAAAAAAAAAAAAAAAAAAAAAAAAAAAAAAAAAAAAAAAAAAAAAAAAAAAAAAAAAAAAAAAAAAAAAAAAAAAAAAAAAAAAAAAAAAAAAAAAAAAAAAAAAAAAAAAAAAAAAAAAAAAAAAAAAAAAAAAAAAAAAAAAAAAAAAAAAAAAAAAAAAAAAAAAAAAAAAAAAAAAAAAAAAAAAAAAAAAAAAAAAAAAAAAAAAAAAAAAAAAAAAAAAAAAAAAAAAAAAAAAAAAAAAAAAAAAAAAAAAAAAAAAAAAAAAAAAAAAAAAAAAAAAAAAAAAAAAAAAAAAAAAAAAAAAAAAAAAAAAAAAAAAAAAAAAAAAAAAAAAAAAAAAAAAAAAAAAAAAAAAAAAAAAAAAAAAAAAAAAAAAAAAAAAAAAAAAAAAAAAAAAAAAAAAAAAAAAAAAAAAAAAAAAAAAAAAAAAAAAAAAAAAAAAAAAAAAAAAAAAAAAAAAAAAAAAAAAAAAAAAAAAAAAAAAAAAAAAAAAAAAAAAAAAAAAAAAAAAAAAAAAAAAAAAAAAAAAAAAAAAAAAAAAAAAAAAAAAAAAAAAAAAAAAAAAAAAAAAAAAAAAAAAAAAAAAAAAAAAAAAAAAAAAAAAAAAAAAAAAAAAAAAAAAAAAAAAAAAAAAAAAAAAAAAAAAAAAAAAAAAAAAAAAAAAAAAAAAAAAAAAAAAAAAAAAAAAAAAAAAAAAAAAAAAAAAAAAAAAAAAAAAAAAAAAAAAAAAAAAAAAAAAAAAAAAAAAAAAAAAAAAAAAAAAAAAAAAAAAAAAAAAAAAAAAAAAAAAAAAAAAAAAAAAAAAAAAAAAAAAAAAAAAAAAAAAAAAAAAAAAAAAAAAAAAAAAAAAAAAAAAAAAAAAAAAAAAAAAAAAAAAAAAAAAAAAAAAAAAAAAAAAAAAAAAAAAAAAAAAAAAAAAAAAAAAAAAAAAAAAAAAAAAAAAAAAAAAAAAAAAAAAAAAAAAAAAAAAAAAAAAAAAAAAAAAAAAAAAAAAAAAAAAAAAAAAAAAAAAAAAAAAAAAAAAAAAAAAAAAAAAAAAAAAAAAAAAAAAAAAAAAAAAAAAAAAAAAAAAAAAAAAAAAAAAAAAAAAAAAAAAAAAAAAAAAAAAAAAAAAAAAAAAAAAAAAAAAAAAAAAAAAAAAAAAAAAAAAAAAAAAAAAAAAAAAAAAAAAAAAAAAAAAAAAAAAAAAAAAAAAAAAAAAAAAAAAAAAAAAAAAAAAAAAAAAAAAAAAAAAAAAAAAAAAAAAAAAAAAAAAAAAAAAAAAAAAAAAAAAAAAAAAAAAAAAAAAAAAAAAAAAAAAAAAAAAAAAAAAAAAAAAAAAAAAAAAAAAAAAAAAAAAAAAAAAAAAAAAAAAAAAAAAAAAAAAAAAAAAAAAAAAAAAAAAAAAAAAAAAAAAAAAAAAAAAAAAAAAAAAAAAAAAAAAAAAAAAAAAAAAAAAAAAAAAAAAAAAAAAAAAAAAAAAAAAAAAAAAAAAAAAAAAAAAAAAAAAAAAAAAAAAAAAAAAAAAAAAAAAAAAAAAAAAAAAAAAAAAAAAAAAAAAAAAAAAAAAAAAAAAAAAAAAAAAAAAAAAAAAAAAAAAAAAAAAAAAAAAAAAAAAAAAAAAAAAAAAAAAAAAAAAAAAAAAAAAAAAAAAAAAAAAAAAAAAAAAAAAAAAAAAAAAAAAAAAAAAAAAAAAAAAAAAAAAAAAAAAAAAAAAAAAAAAAAAAAAAAAAAAAAAAAAAAAAAAAAAAAAAAAAAAAAAAAAAAAAAAAAAAAAAAAAAAAAAAAAAAAAAAAAAAAAAAAAAAAAAAAAAAAAAAAAAAAAAAAAAAAAAAAAAAAAAAAAAAAAAAAAAAAAAAAAAAAAAAAAAAAAAAAAAAAAAAAAAAAAAAAAAAAAAAAAAAAAAAAAAAAAAAAAAAAAAAAAAAAAAAAAAAAAAAAAAAAAAAAAAAAAAAAAAAAAAAAAAAAAAAAAAAAAAAAAAAAAAAAAAAAAAAAAAAAAAAAAAAAAAAAAAAAAAAAAAAAAAAAAAAAAAAAAAAAAAAAAAAAAAAAAAAAAAAAAAAAAAAAAAAAAAAAAAAAAAAAAAAAAAAAAAAAAAAAAAAAAAAAAAAAAAAAAAAAAAAAAAAAAAAAAAAAAAAAAAAAAAAAAAAAAAAAAAAAAAAAAAAAAAAAAAAAAAAAAAAAAAAAAAAAAAAAAAAAAAAAAAAAAAAAAAAAAAAAAAAAAAAAAAAAAAAAAAAAAAAAAAAAAAAAAAAAAAAAAAAAAAAAAAAAAAAAAAAAAAAAAAAAAAAAAAAAAAAAAAAAAAAAAAAAAAAAAAAAAAAAAAAAAAAAAAAAAAAAAAAAAAAAAAAAAAAAAAAAAAAAAAAAAAAAAAAAAAAAAAAAAAAAAAAAAAAAAAAAAAAAAAAAAAAAAAAAAAAAAAAAAAAAAAAAAAAAAAAAAAAAAAAAAAAAAAAAAAAAAAAAAAAAAAAAAAAAAAAAAAAAAAAAAAAAAAAAAAAAAAAAAAAAAAAAAAAAAAAAAAAAAAAAAAAAAAAAAAAAAAAAAAAAAAAAAAAAAAAAAAAAAAAAAAAAAAAAAAAAAAAAAAAAAAAAAAAAAAAAAAAAAAAAAAAAAAAAAAAAAAAAAAAAAAAAAAAAAAAAAAAAAAAAAAAAAAAAAAAAAAAAAAAAAAAAAAAAAAAAAAAAAAAAAAAAAAAAAAAAAAAAAAAAAAAAAAAAAAAAAAAAAAAAAAAAAAAAAAAAAAAAAAAAAAAAAAAAAAAAAAAAAAAAAAAAAAAAAAAAAAAAAAAAAAAAAAAAAAAAAAAAAAAAAAAAAAAAAAAAAAAAAAAAAAAAAAAAAAAAAAAAAAAAAAAAAAAAAAAAAAAAAAAAAAAAAAAAAAAAAAAAAAAAAAAAAAAAAAAAAAAAAAAAAAAAAAAAAAAAAAAAAAAAAAAAAAAAAAAAAAAAAAAAAAAAAAAAAAAAAAAAAAAAAAAAAAAAAAAAAAAAAAAAAAAAAAAAAAAAAAAAAAAAAAAAAAAAAAAAAAAAAAAAAAAAAAAAAAAAAAAAAAAAAAAAAAAAAAAAAAAAAAAAAAAAAAAAAAAAAAAAAAAAAAAAAAAAAAAAAAAAAAAAAAAAAAAAAAAAAAAAAAAAAAAAAAAAAAAAAAAAAAAAAAAAAAAAAAAAAAAAAAAAAAAAAAAAAAAAAAAAAAAAAAAAAAAAAAAAAAAAAAAAAAAAAAAAAAAAAAAAAAAAAAAAAAAAAAAAAAAAAAAAAAAAAAAAAAAAAAAAAAAAAAAAAAAAAAAAAAAAAAAAAAAAAAAAAAAAAAAAAAAAAAAAAAAAAAAAAAAAAAAAAAAAAAAAAAAAAAAAAAAAAAAAAAAAAAAAAAAAAAAAAAAAAAAAAAAAAAAAAAAAAAAAAAAAAAAAAAAAAAAAAAAAAAAAAAAAAAAAAAAAAAAAAAAAAAAAAAAAAAAAAAAAAAAAAAAAAAAAAAAAAAAAAAAAAAAAAAAAAAAAAAAAAAAAAAAAAAAAAAAAAAAAAAAAAAAAAAAAAAAAAAAAAAAAAAAAAAAAAAAAAAAAAAAAAAAAAAAAAAAAAAAAAAAAAAAAAAAAAAAAAAAAAAAAAAAAAAAAAAAAAAAAAAAAAAAAAAAAAAAAAAAAAAAAAAAAAAAAAAAAAAAAAAAAAAAAAAAAAAAAAAAAAAAAAAAAAAAAAAAAAAAAAAAAAAAAAAAAAAAAAAAAAAAAAAAAAAAAAAAAAAAAAAAAAAAAAAAAAAAAAAAAAAAAAAAAAAAAAAAAAAAAAAAAAAAAAAAAAAAAAAAAAAAAAAAAAAAAAAAAAAAAAAAAAAAAAAAAAAAAAAAAAAAAAAAAAAAAAAAAAAAAAAAAAAAAAAAAAAAAAAAAAAAAAAAAAAAAAAAAAAAAAAAAAAAAAAAAAAAAAAAAAAAAAAAAAAAAAAAAAAAAAAAAAAAAAAAAAAAAAAAAAAAAAAAAAAAAAAAAAAAAAAAAAAAAAAAAAAAAAAAAAAAAAAAAAAAAAAAAAAAAAAAAAAAAAAAAAAAAAAAAAAAAAAAAAAAAAAAAAAAAAAAAAAAAAAAAAAAAAAAAAAAAAAAAAAAAAAAAAAAAAAAAAAAAAAAAAAAAAAAAAAAAAAAAAAAAAAAAAAAAAAAAAAAAAAAAAAAAAAAAAAAAAAAAAAAAAAAAAAAAAAAAAAAAAAAAAAAAAAAAAAAAAAAAAAAAAAAAAAAAAAAAAAAAAAAAAAAAAAAAAAAAAPZYQDVUzvAUyr9hOW0hDiWwEzyqnbUpFU+Qp/hVUI9QWzX3cKmNCD7E3Z6Z507PFL6OIFgXzZdHe5Z4kkbkvgXPYE8=</c2pa:manifest></metadata>
<path transform="translate(0,0)" fill="rgb(255,255,255)" d="M 0 0 L 2048 0 L 2048 2048 L 0 2048 L 0 0 z"/>
<path transform="translate(0,0)" fill="rgb(14,13,13)" d="M 817.644 303.372 C 832.351 302.153 847.91 303.573 857.634 316.282 C 867.05 328.59 864.469 340.937 862.542 354.984 C 869.216 369.057 874.985 381.939 878.818 397.198 C 889.184 438.467 886.77 487.742 879.362 529.56 C 868.09 593.183 843.332 658.482 873.615 721.354 C 878.562 708.198 881.977 691.867 885.986 678.241 C 908.758 601.802 948.418 532.982 1022.7 497.033 C 1092.49 463.255 1182.8 492.009 1205.49 569.45 C 1208.74 580.566 1207.44 592.215 1212.47 603.194 C 1217.67 607.29 1234.37 607.558 1241.41 609.173 C 1312 625.365 1379.16 666.642 1421.25 725.296 C 1446.25 713.196 1469.24 706.177 1496.98 706.921 C 1583.7 709.245 1648.28 782.542 1656.56 865.923 C 1658.96 890.104 1657.79 908.194 1654.84 931.873 C 1723.82 938.677 1798.07 984.441 1840.95 1038.4 C 1858.67 1060.62 1873.75 1084.82 1885.9 1110.51 C 1891.56 1122.55 1896.03 1134.99 1902.15 1146.84 C 1905.38 1153.09 1911.89 1158.33 1919.38 1155.08 C 1926.39 1152.04 1928.72 1148.36 1931.46 1141.45 C 1929.87 1128.77 1925.06 1117.47 1927.23 1104.2 C 1935.29 1054.86 1988.22 1088.85 1993.67 1037.05 C 2002.55 1040.63 2010.57 1045.18 2017.12 1053.18 C 2039.63 1080.64 2039.05 1137.52 2012.73 1162.23 C 2002.97 1171.4 1988.04 1171.24 1975.38 1169.69 C 1966.76 1180.73 1961.18 1190.14 1949.59 1198.69 C 1940.14 1205.45 1922.92 1208.66 1915.25 1216.82 C 1914.43 1217.69 1915.63 1248.64 1915.55 1251.88 C 1915.04 1274.41 1914.14 1298.45 1909.14 1320.5 C 1901.68 1353.37 1889.32 1386.88 1871.76 1415.7 C 1848.37 1452.63 1833.87 1460.06 1848.57 1506.58 C 1858.61 1538.35 1872.93 1568.01 1883.58 1599.24 C 1886.76 1609.14 1889.26 1617.64 1891.52 1627.83 C 1901.42 1672.53 1867.23 1697.6 1828.99 1709.24 C 1769.45 1727.38 1697.25 1731.9 1639.82 1705.11 C 1626.85 1699.06 1621.31 1686.76 1614.42 1675.14 C 1601.92 1672.66 1586.99 1672.09 1574.33 1669.09 C 1547.94 1661.95 1527.78 1661.15 1509.87 1639.26 C 1491.41 1616.69 1521.08 1573.33 1513.43 1562.01 C 1507.92 1558.55 1478.28 1558.13 1469.37 1557.54 C 1475.74 1594.87 1498.45 1642.22 1483.99 1680.95 C 1477.32 1698.83 1457.17 1712.91 1439.52 1720.44 C 1377.06 1746.59 1299.79 1746.6 1236.18 1724.13 C 1213.82 1716.23 1206.27 1708.79 1200.75 1687.77 C 1197.31 1674.72 1168.94 1676.04 1158.51 1673.4 C 1151.25 1671.57 1140.97 1669.19 1133.63 1666.29 C 1113.14 1658.18 1087.62 1648.55 1078.18 1626.79 C 1074.81 1619.02 1073.87 1612.69 1076.43 1604.62 C 1081.56 1588.44 1094.01 1575.56 1102.31 1561.06 C 1113.14 1542.15 1122.87 1522.68 1131.26 1502.34 C 1145.93 1465.79 1155.3 1425.66 1157.14 1386.32 C 1157.6 1376.54 1148.25 1361.64 1143.53 1353.06 C 1138.43 1343.79 1134.28 1335.55 1130.38 1325.67 C 1121.59 1303.67 1114.48 1281.03 1109.12 1257.95 C 1103.41 1233.09 1100.31 1208.68 1098.88 1183.17 C 1098.37 1174.08 1100.93 1150.12 1097.99 1143.11 C 1093.96 1139.24 1077.29 1136.16 1070.78 1134.46 C 1059.99 1131.59 1049.32 1128.28 1038.8 1124.53 C 1024.35 1119.45 1010.27 1113.36 996.667 1106.3 C 983.99 1099.68 965.118 1088.7 952.146 1084.29 C 935.915 1078.78 903.232 1084.27 916.329 1055.74 C 921.451 1044.57 925.536 1036.57 929.115 1025.63 C 919.586 1021.4 908.019 1017.91 897.944 1013.6 C 873.152 1003 846.593 987.642 825.531 970.877 C 788.709 941.566 751.535 895.872 729.847 854.329 C 717.266 829.897 708.506 803.681 703.87 776.594 C 689.115 689.505 719.691 626.955 744.901 546.468 C 756.552 511.764 765.981 476.891 761.939 440.026 C 758.717 410.642 748.02 416.908 730.251 403.322 C 705.618 384.489 729.899 349.937 748.656 335.779 C 771.469 318.559 788.376 306.752 817.644 303.372 z"/>
<path transform="translate(0,0)" fill="rgb(255,255,255)" d="M 1649.45 952.816 C 1792.6 984.795 1890.83 1097.86 1890.78 1247.12 C 1890.75 1322.93 1866.67 1384.26 1822.83 1445.09 C 1820.14 1425.29 1817.61 1407.25 1815.96 1387.34 C 1799.68 1442.07 1828.86 1518.67 1849.26 1569.73 C 1857.73 1590.94 1869 1617.51 1868.27 1640.48 C 1866.97 1681.51 1792.83 1693.84 1761.89 1695.54 C 1760.73 1690.89 1759.67 1686.24 1757.8 1681.83 C 1743.27 1647.65 1706.26 1636.81 1675.01 1656.03 C 1665.44 1647.61 1657.25 1644.23 1644.35 1645 L 1643.05 1645.09 C 1666.17 1581.5 1657.15 1500.48 1642.61 1435.8 L 1634.18 1525.16 C 1576.77 1534.01 1513.39 1537.82 1456 1527.28 C 1451.73 1503.96 1447.4 1479.55 1441.71 1456.57 L 1439.17 1455.65 C 1437.24 1475.81 1435.61 1498.37 1438.4 1518.36 C 1444.34 1561.04 1459.96 1602.39 1463.58 1645.59 C 1464.52 1656.82 1464.62 1667.93 1456.15 1676.35 C 1430.45 1701.88 1382.98 1711.39 1348.98 1713.75 C 1347.78 1669.05 1308.7 1636.44 1267.62 1664.11 C 1256.63 1652.39 1248.2 1650.79 1232.92 1652.92 C 1255.68 1591.61 1270.73 1534.26 1271.08 1468.36 C 1271.24 1438.65 1268.71 1408.36 1267.44 1378.61 C 1266.59 1380.32 1265.72 1382.02 1264.82 1383.7 C 1264.19 1393.99 1258.07 1453.11 1255.61 1458.38 C 1248.46 1458.03 1239.3 1446.52 1234.35 1441.02 C 1153.96 1351.61 1122 1260.22 1123 1141.27 C 1183.48 1141.88 1224.69 1135.95 1279.1 1105.82 C 1307.56 1147.76 1346.04 1171.78 1397.79 1172.91 C 1503.84 1175.22 1600.8 1095.58 1636.66 998.707 C 1642.29 983.525 1645.42 968.344 1649.45 952.816 z"/>
<path transform="translate(0,0)" fill="rgb(69,67,71)" d="M 1439.17 1455.65 C 1439.04 1453.67 1438.88 1452.81 1439.28 1450.96 L 1440.11 1450.18 L 1439.76 1449.84 C 1439.93 1449.82 1440.09 1449.81 1440.25 1449.79 C 1441.22 1450.83 1441.45 1455.09 1441.71 1456.57 L 1439.17 1455.65 z"/>
<path transform="translate(0,0)" fill="rgb(100,97,99)" d="M 1264.82 1383.7 C 1264.88 1382.81 1265.13 1375.96 1266.69 1376.09 C 1267.39 1376.74 1267.32 1377.62 1267.44 1378.61 C 1266.59 1380.32 1265.72 1382.02 1264.82 1383.7 z"/>
<path transform="translate(0,0)" fill="rgb(255,255,255)" d="M 1086.14 979.4 C 1063.39 991.568 1049.48 998.132 1024.06 1004.87 C 974.834 1017.93 920.011 1001.99 877.374 975.798 C 830.527 947.02 793.46 910.02 764.056 863.999 C 712.295 782.986 715.198 704.49 744.87 616.486 C 757.049 579.139 770.997 545.363 779.384 506.577 C 786.323 474.308 793.879 411.48 759.246 391.843 C 746.56 384.65 733.149 385.123 750.387 364.654 C 768.468 343.184 794.878 328.305 823.124 326.437 C 831.964 325.853 844.895 328.343 843.78 340.526 C 841.708 355.588 826.697 368.234 815.689 377.424 C 827.463 375.277 832.399 373.12 843.523 368.315 C 847.384 374.868 850.599 381.78 853.122 388.955 C 855.47 395.524 857.542 400.763 854.671 406.847 L 857.926 408.137 C 861.086 416.376 863.66 456.991 861.885 467.791 C 861.731 468.73 857.313 472.099 856.103 473.039 C 858.093 473.356 860.077 473.709 862.054 474.098 C 861.384 493.863 859.058 510.142 856.365 529.733 C 849.99 534.923 846.726 536.327 838.789 538.633 L 840.376 540.583 C 845.009 539.38 850.694 538.071 855.169 536.628 C 851.961 554.163 848.114 569.399 844.068 586.681 C 837.445 593.076 834.25 593.949 825.737 596.644 L 827.462 598.615 C 832.756 597.093 837.511 595.803 842.665 593.795 C 839.293 610.072 837.401 624.464 835.362 640.995 C 831.053 645.481 827.018 649.733 821.307 652.54 L 824.488 653.297 L 834.942 647.165 C 835.935 659.673 836.843 671.884 838.405 684.341 C 832.54 691.02 828.645 695.148 821.086 700.138 L 823.4 701.365 C 829.952 697.83 833.731 695.502 839.467 690.585 C 844.499 709.055 848.502 716.679 855.014 733.623 C 850.384 745.001 847.648 749.57 837.605 757.342 L 840.214 758.245 C 849.208 751.972 853.047 746.972 858.485 737.448 C 865.505 747.611 874.882 757.315 880.646 767.497 C 887.661 779.891 878.843 802.507 870.261 812.519 L 871.726 812.589 C 881.391 803.63 886.21 788.444 886.671 775.44 C 886.733 773.446 886.742 771.45 886.699 769.455 C 911.762 782.958 934.306 786.887 944.671 818.48 C 946.455 823.918 947.241 828.365 947.249 834.166 L 949.156 835.109 C 948.637 812.391 942.299 802.019 927.645 785.414 C 938.52 786.442 950.078 789.462 960.986 790.739 C 984.55 793.498 1001.9 800.081 1011.15 824.182 L 1013.45 825.703 C 1011.26 812.371 1004.72 804.008 995.369 795.152 C 1009.06 796.133 1023.33 796.427 1037.22 797.318 L 1036.86 795.198 C 1036.15 795.003 1036.68 795.208 1034.9 794.152 L 1035.99 793.474 C 1080.45 765.323 1038.71 702.466 991.323 738.286 C 989.329 740.835 989.332 740.986 986.778 742.895 C 986.722 740.183 987.891 739.331 989.524 736.543 C 1079.75 601.091 1246.11 595.757 1363.46 698.89 C 1378.13 711.778 1390.09 727.358 1404.14 740.593 C 1383.94 758.12 1364.92 773.702 1350.46 796.867 C 1415.87 731.224 1512.03 699.812 1587.16 771.462 C 1621.58 804.286 1633.13 848.809 1633.79 894.813 C 1635.38 959.331 1601.41 1036.5 1556.83 1082.79 C 1521.3 1119.69 1453.55 1148.87 1401.34 1148.58 C 1363.44 1148.61 1327.14 1133.25 1300.79 1106.01 C 1281.47 1086.24 1267.59 1058.31 1266.9 1030.46 C 1266.25 1027.35 1265.72 1024.55 1264.95 1021.46 C 1258.29 1050.85 1263.26 1069.93 1274.04 1097.15 C 1244.25 1109.49 1219.12 1117.01 1186.5 1119.94 C 1125.53 1125.4 1057.76 1109.58 1004.05 1080.24 C 993.958 1074.73 982.297 1068.3 973.564 1061.02 C 1014.83 1051.02 1069.22 1022.34 1089.12 982.979 C 1097.65 987.862 1102.04 988.549 1111.5 990.637 L 1114.72 988.056 C 1099.17 984.607 1089 969.602 1080.92 957.552 C 1081.69 966.848 1082.28 970.859 1086.14 979.4 z"/>
<path transform="translate(0,0)" fill="rgb(147,148,150)" d="M 824.488 653.297 C 820.759 655.014 817.117 656.428 813 657.086 C 812.338 657.212 802.906 659.06 803.737 657.164 C 804.155 656.21 810.222 655.788 811.405 655.622 C 814.844 655.139 818.217 653.218 821.307 652.54 L 824.488 653.297 z"/>
<path transform="translate(0,0)" fill="rgb(100,97,99)" d="M 847.122 412.657 L 847.605 412.379 C 850.027 411.011 851.339 409.993 853.385 408.036 L 854.671 406.847 L 857.926 408.137 C 855.226 409.658 842.632 418.312 839.867 416.545 C 840.623 415.567 844.144 414.266 845.305 413.732 C 846.436 413.357 846.532 413.476 847.122 412.657 z"/>
<path transform="translate(0,0)" fill="rgb(100,97,99)" d="M 840.214 758.245 C 838.018 759.693 825.508 766.437 823.59 765.245 C 823.554 765.124 823.518 765.002 823.482 764.88 C 823.928 764.037 831.239 761.248 833.001 760.181 L 837.605 757.342 L 840.214 758.245 z"/>
<path transform="translate(0,0)" fill="rgb(119,118,118)" d="M 815.538 704.632 C 813.05 705.003 803.803 706.823 801.835 705.507 C 802.465 704.494 811.933 703.093 813.365 702.787 L 815.538 704.632 z"/>
<path transform="translate(0,0)" fill="rgb(69,67,71)" d="M 1011.15 824.182 L 1013.45 825.703 C 1014.08 827.95 1014.03 828.205 1014.24 830.684 C 1013.95 833.339 1013.68 835.817 1013.48 838.49 C 1012.9 834.469 1012.18 829.81 1011.42 825.837 L 1011.15 824.182 z"/>
<path transform="translate(0,0)" fill="rgb(147,148,150)" d="M 818.966 599.202 C 816.328 599.128 812.353 599.245 809.98 598.697 L 809.504 597.678 L 809.163 597.691 L 809.005 598.288 C 805.929 595.896 818.675 597.134 819.219 597.152 L 818.966 599.202 z"/>
<path transform="translate(0,0)" fill="rgb(119,118,118)" d="M 832.825 541.191 C 831.182 541.128 824.191 541.362 822.613 539.921 C 822.429 539.754 822.503 539.68 822.591 539.467 C 823.734 538.67 831.244 539.094 832.919 539.177 L 832.825 541.191 z"/>
<path transform="translate(0,0)" fill="rgb(69,67,71)" d="M 813.365 702.787 C 816.152 701.931 818.343 701.203 821.086 700.138 L 823.4 701.365 C 820.617 702.623 818.265 703.361 815.538 704.632 L 813.365 702.787 z"/>
<path transform="translate(0,0)" fill="rgb(100,97,99)" d="M 841.652 476.998 C 841.63 476.795 841.607 476.591 841.584 476.387 C 841.591 476.379 851.837 474.612 852.477 474.471 L 853.003 476.489 C 850.105 477.015 848.537 477.092 845.623 477.271 C 843.81 476.984 843.484 476.966 841.652 476.998 z"/>
<path transform="translate(0,0)" fill="rgb(41,39,40)" d="M 825.737 596.644 L 827.462 598.615 C 824.32 599.002 822.148 599.094 818.966 599.202 L 819.219 597.152 C 821.485 597.015 823.474 596.878 825.737 596.644 z"/>
<path transform="translate(0,0)" fill="rgb(41,39,40)" d="M 852.477 474.471 L 856.103 473.039 C 858.093 473.356 860.077 473.709 862.054 474.098 C 858.362 474.89 856.623 475.275 853.003 476.489 L 852.477 474.471 z"/>
<path transform="translate(0,0)" fill="rgb(41,39,40)" d="M 832.919 539.177 C 834.878 539.017 836.835 538.836 838.789 538.633 L 840.376 540.583 C 837.773 540.87 835.438 541.036 832.825 541.191 L 832.919 539.177 z"/>
<path transform="translate(0,0)" fill="rgb(100,97,99)" d="M 1264.95 1021.46 C 1265.3 1020.61 1265.43 1019.94 1266.2 1019.49 C 1267.65 1019.52 1266.92 1029.28 1266.9 1030.46 C 1266.25 1027.35 1265.72 1024.55 1264.95 1021.46 z"/>
<path transform="translate(0,0)" fill="rgb(147,148,150)" d="M 947.249 834.166 L 949.156 835.109 C 948.794 837.05 948.472 838.939 947.709 840.775 L 947.831 840.259 L 947.171 841.532 C 947.066 841.514 946.962 841.496 946.857 841.479 C 946.277 840.743 947.136 835.61 947.249 834.166 z"/>
<path transform="translate(0,0)" fill="rgb(147,148,150)" d="M 1014.24 830.684 C 1014.41 831.588 1016.09 840.299 1013.63 839.843 C 1013.39 839.346 1013.48 839.177 1013.48 838.49 C 1013.68 835.817 1013.95 833.339 1014.24 830.684 z"/>
<path transform="translate(0,0)" fill="rgb(119,118,118)" d="M 1036.86 795.198 C 1042.13 796.044 1044.51 799.034 1037.22 797.318 L 1036.86 795.198 z"/>
<path transform="translate(0,0)" fill="rgb(41,39,40)" d="M 1114.72 988.056 L 1115.75 989.035 C 1116.32 989.477 1116.86 989.859 1117.2 990.512 C 1116.88 991.498 1114.81 991.022 1114.08 990.941 L 1111.5 990.637 L 1114.72 988.056 z"/>
<path transform="translate(0,0)" fill="rgb(194,194,195)" d="M 841.652 476.998 C 843.484 476.966 843.81 476.984 845.623 477.271 C 843.912 478.528 843.388 478.048 841.652 476.998 z"/>
<path transform="translate(0,0)" fill="rgb(14,13,13)" d="M 1166.9 804.068 C 1195.19 799.724 1221.7 819.01 1226.27 847.27 C 1230.85 875.53 1211.78 902.191 1183.55 906.994 C 1155.01 911.852 1127.97 892.514 1123.34 863.927 C 1118.72 835.341 1138.27 808.462 1166.9 804.068 z"/>
<path transform="translate(0,0)" fill="rgb(255,255,255)" d="M 1168.09 809.268 C 1186.77 807.884 1205.09 813.245 1215.14 830.417 C 1237.61 868.8 1202.09 913.843 1158.59 900.032 C 1160.1 899.465 1160.89 899.155 1162.5 899.008 C 1175.53 897.678 1185.24 892.454 1193.03 882.001 C 1211.64 857.037 1196.28 823.214 1166.62 817.532 C 1156.93 815.676 1152.15 818.645 1143.21 820.785 C 1153.5 813.365 1155.14 811.857 1168.09 809.268 z"/>
<path transform="translate(0,0)" fill="rgb(255,255,255)" d="M 1173.96 828.936 C 1180.95 826.782 1188.35 830.72 1190.47 837.714 C 1192.59 844.709 1188.61 852.092 1181.61 854.175 C 1174.65 856.243 1167.33 852.303 1165.23 845.358 C 1163.13 838.414 1167.03 831.075 1173.96 828.936 z"/>
<path transform="translate(0,0)" fill="rgb(14,13,13)" d="M 1356.17 858.185 C 1381.72 822.734 1415.03 791.02 1459.9 783.92 C 1488.16 779.229 1517.11 786.091 1540.26 802.964 C 1558.23 816.342 1572.65 838.706 1579.59 859.846 C 1604.89 936.969 1571.52 1025.92 1518.32 1083.42 L 1510.09 1092.62 C 1512.06 1088.92 1514.42 1085.19 1516.61 1081.6 C 1551.33 1031.8 1581.29 981.267 1580.86 918.389 C 1580.43 855.301 1547.31 791.444 1476.7 792.244 C 1424.67 792.833 1392.51 824.581 1358.28 859.255 L 1356.17 858.185 z"/>
<path transform="translate(0,0)" fill="rgb(14,13,13)" d="M 818.228 338.283 C 836.399 335.847 816.131 357.063 811.615 361.616 C 797.896 375.449 784.772 380.085 765.592 380.076 L 764.691 379.834 C 748.581 375.329 761.139 366.132 768.664 359.738 C 783.147 347.431 799.676 341.331 818.228 338.283 z"/>
<path transform="translate(0,0)" fill="rgb(14,13,13)" d="M 1228.1 765.713 C 1247.02 767.123 1250.81 791.582 1247.56 806.744 C 1243.83 799.808 1242.71 791.52 1238.23 783.403 C 1233.81 775.378 1225.68 772.627 1228.1 765.713 z"/>
<path transform="translate(0,0)" fill="rgb(14,13,13)" d="M 1059.81 693.273 C 1063.98 693.154 1078.98 693.332 1074.52 701.137 C 1073.56 702.824 1054.02 702.505 1049.3 703.21 C 1044.03 704.958 1040.46 706.527 1035.4 708.809 C 1044.26 698.959 1046.46 696.05 1059.81 693.273 z"/>
<path transform="translate(0,0)" fill="rgb(41,39,40)" d="M 1358.28 859.255 C 1351.93 866.056 1351.53 863.875 1356.17 858.185 L 1358.28 859.255 z"/>
<path transform="translate(0,0)" fill="rgb(255,255,255)" d="M 893.13 764.521 C 894.355 746.939 898.004 729.394 901.396 712.267 C 910.714 665.519 926.508 619.293 956.64 581.665 C 977.274 555.794 1004.47 532.981 1034.27 518.391 C 1072.13 499.858 1119.06 504.945 1151.68 531.788 C 1175.11 551.073 1183.53 577.486 1186.49 606.533 C 1175.74 607.42 1162.17 608.841 1151.78 611.299 C 1141.25 564.32 1093.72 543.679 1049.47 552.74 C 997.881 563.303 964.384 603.53 936.602 644.739 L 937.521 646.38 C 961.408 611.779 998.625 573.855 1039.83 561.54 C 1084.66 548.14 1129.04 566.973 1142.46 613.694 C 1106.58 617.227 1067.68 639.09 1040.38 661.795 C 1002.8 693.045 973.98 740.765 954.238 785.277 C 933.429 780.782 911.001 776.368 893.13 764.521 z"/>
<path transform="translate(0,0)" fill="rgb(147,148,150)" d="M 937.521 646.38 C 936.651 647.792 933.179 653.249 931.698 653.32 C 930.633 651.906 935.642 645.926 936.602 644.739 L 937.521 646.38 z"/>
<path transform="translate(0,0)" fill="rgb(255,255,255)" d="M 1179.55 1416.88 C 1197.33 1432.17 1243.78 1491.31 1243.7 1513.37 C 1243.57 1551.63 1222.01 1613.67 1210.45 1650.96 C 1210.52 1650.7 1209.3 1656.05 1208.44 1654.4 C 1207.53 1652.66 1208.23 1647.94 1208.34 1645.87 C 1200.37 1611.25 1167.13 1583.11 1132.11 1602.49 C 1124.64 1593.5 1122.1 1592.37 1110.47 1589.45 C 1152.11 1521.74 1166.97 1497.44 1179.55 1416.88 z"/>
<path transform="translate(0,0)" fill="rgb(194,194,195)" d="M 1208.34 1645.87 C 1209.17 1648.44 1209.26 1648.65 1210.45 1650.96 C 1210.52 1650.7 1209.3 1656.05 1208.44 1654.4 C 1207.53 1652.66 1208.23 1647.94 1208.34 1645.87 z"/>
<path transform="translate(0,0)" fill="rgb(255,255,255)" d="M 1629.59 1553.48 C 1630.79 1553.2 1631.25 1553.49 1632.62 1553.74 C 1637.32 1564.72 1626.73 1622.78 1622.44 1636.06 C 1613.5 1608.72 1595.84 1597.45 1567.24 1601.81 C 1563.85 1602.96 1560.37 1604.67 1557.09 1606.17 C 1547.28 1596.96 1542.06 1595.31 1529.15 1595.81 C 1531.79 1580.81 1532.5 1572.88 1538.93 1559.09 C 1569.2 1558.32 1599.44 1556.45 1629.59 1553.48 z"/>
<path transform="translate(0,0)" fill="rgb(255,255,255)" d="M 1290.87 1659.21 C 1316.34 1657.34 1337.13 1673.52 1342.94 1698.5 C 1344.1 1703.47 1344.16 1708.2 1344.7 1713.26 C 1333.18 1713.22 1321.6 1713.33 1310.15 1712.12 C 1292.85 1711.11 1273.32 1707.22 1256.61 1702.66 C 1251.07 1701.14 1260.65 1680.65 1262.25 1678.1 C 1268.13 1668.7 1276.76 1662.18 1287.54 1659.89 L 1290.87 1659.21 z"/>
<path transform="translate(0,0)" fill="rgb(255,255,255)" d="M 983.956 1014.17 C 1020.46 1014.46 1040.72 1007.79 1074.61 993.591 C 1048.36 1022.1 1012.55 1045.16 974.397 1053.92 C 970.093 1054.91 962.851 1056.94 958.656 1056.23 L 959.167 1054.05 L 957.868 1052.73 C 951.999 1057.91 949.831 1058.67 941.886 1058.59 C 938.032 1058.45 941.952 1052.58 942.715 1051.04 C 949.058 1038.21 953.126 1026.05 956.918 1012.31 C 964.579 1012.99 973.839 1013.24 980.993 1015.89 C 980.986 1014.42 982.046 1013.68 983.534 1013.68 C 983.782 1013.85 983.638 1013.72 983.956 1014.17 z"/>
<path transform="translate(0,0)" fill="rgb(255,255,255)" d="M 956.918 1012.31 C 964.579 1012.99 973.839 1013.24 980.993 1015.89 C 975.368 1031.77 968.432 1039.88 957.868 1052.73 C 951.999 1057.91 949.831 1058.67 941.886 1058.59 C 938.032 1058.45 941.952 1052.58 942.715 1051.04 C 949.058 1038.21 953.126 1026.05 956.918 1012.31 z"/>
<path transform="translate(0,0)" fill="rgb(41,39,40)" d="M 980.993 1015.89 C 980.986 1014.42 982.046 1013.68 983.534 1013.68 C 983.782 1013.85 983.638 1013.72 983.956 1014.17 C 980.963 1025.06 967.196 1046.62 959.167 1054.05 L 957.868 1052.73 C 968.432 1039.88 975.368 1031.77 980.993 1015.89 z"/>
<path transform="translate(0,0)" fill="rgb(255,255,255)" d="M 1964.35 1101.66 C 1977.52 1090.45 1996.95 1089.97 2003.54 1071.19 C 2003.82 1070.41 2004.82 1067.9 2005.5 1067.52 C 2007.41 1072.33 2007.24 1077.53 2007.15 1082.66 C 2006.75 1103.17 2008.69 1116.33 1994.58 1132.4 L 1995.6 1132.42 L 1995.04 1132.44 C 2001.02 1132.56 2012.57 1113.6 2016.29 1108.79 C 2010.89 1134.66 1997.22 1156.19 1966.24 1144.47 C 1951.25 1138.79 1943.63 1116.13 1950.86 1102 C 1957.29 1089.43 1966.25 1087.07 1978.77 1082.98 C 1972.43 1090.18 1968.89 1090.91 1962.44 1100.64 L 1964.35 1101.66 z"/>
<path transform="translate(0,0)" fill="rgb(41,39,40)" d="M 1962.44 1100.64 L 1964.35 1101.66 C 1963.89 1102.03 1961.73 1104.46 1961.02 1103.15 C 1961.05 1102 1961.66 1101.54 1962.44 1100.64 z"/>
<path transform="translate(0,0)" fill="rgb(255,255,255)" d="M 1701.96 1651.33 C 1732.42 1650.31 1749.69 1667.99 1757.17 1695.87 C 1743.91 1696.97 1734.63 1697.04 1721.37 1696.93 C 1701.77 1696.25 1684.5 1694.05 1665.83 1688.05 C 1666.13 1686.54 1666.47 1684.99 1666.75 1683.48 C 1667.97 1676.73 1670.7 1670.34 1674.73 1664.79 C 1681.97 1654.93 1690.71 1652.94 1701.96 1651.33 z"/>
<path transform="translate(0,0)" fill="rgb(255,255,255)" d="M 1154.29 1601.39 C 1166.17 1601.77 1177.52 1606.39 1186.28 1614.42 C 1199.21 1626.17 1202.94 1639.09 1203.84 1655.64 C 1193.51 1655.22 1187.48 1653.67 1177.53 1651.83 C 1174.51 1651.21 1171.5 1650.53 1168.51 1649.78 C 1151.8 1645.72 1135.48 1640.2 1119.74 1633.29 C 1126.55 1611.63 1130.61 1604.24 1154.29 1601.39 z"/>
<path transform="translate(0,0)" fill="rgb(255,255,255)" d="M 1571.47 1606.17 C 1584.04 1605.36 1593.77 1606.17 1604.74 1615.59 C 1609.77 1619.91 1623.18 1640.99 1618.17 1649.24 C 1617.09 1651 1603.31 1649.14 1599.77 1648.88 C 1580.88 1645.74 1566.14 1642.51 1548.33 1634.86 C 1551.78 1620 1555.92 1610.67 1571.47 1606.17 z"/>
<path transform="translate(0,0)" fill="rgb(255,255,255)" d="M 1238.22 1657.02 C 1240.07 1656.78 1243.55 1656.3 1245 1656.73 C 1271.74 1664.76 1261.63 1666.26 1253.51 1684.18 C 1251.16 1689.39 1250.5 1698.11 1250.14 1701.13 C 1237.31 1696.08 1235.67 1695.72 1223.53 1688.35 C 1225.37 1679.62 1227.31 1670.96 1229.79 1662.39 C 1230.7 1659.25 1235.45 1658.29 1238.22 1657.02 z"/>
<path transform="translate(0,0)" fill="rgb(255,255,255)" d="M 1044.92 768.509 C 1044.71 767.568 1040.99 751.595 1039.7 761.477 C 1038.08 773.983 1021.86 766.493 1026.9 756.94 C 1029.64 751.165 1039.06 754.665 1038.32 752.219 C 1037.38 749.096 1032.33 745.989 1029.85 744.279 C 1015.82 736.311 996.534 742.799 989.823 757.427 C 986.742 764.144 985.033 773.171 987.235 780.431 C 987.869 782.411 990.276 786.484 990.499 787.706 C 989.773 789.108 987.3 786.837 986.833 786.11 C 977.432 771.467 985.093 749.031 997.951 739.828 C 1025.39 720.187 1062.29 743.277 1046.48 776.716 C 1045.86 777.954 1044.96 780.557 1043.65 781.192 L 1043.56 781.144 C 1043.11 780.041 1044.59 770.124 1044.92 768.509 z"/>
<path transform="translate(0,0)" fill="rgb(255,255,255)" d="M 1643.98 1650.41 C 1657.31 1649.71 1660.63 1651.58 1672.58 1658.16 C 1667.97 1665.31 1664.62 1670.89 1662.57 1679.25 C 1662.38 1680.38 1662.21 1681.5 1662.06 1682.63 C 1661.9 1683.93 1662.1 1687.55 1659.72 1686.46 C 1653.98 1683.82 1645.26 1678.6 1642.3 1672.78 C 1640.21 1668.67 1640.8 1657.76 1641.29 1652.98 C 1641.48 1651.72 1642.96 1650.94 1643.98 1650.41 z"/>
<path transform="translate(0,0)" fill="rgb(255,255,255)" d="M 1953.54 1156.05 L 1955.8 1156.72 C 1954.18 1159.79 1952.71 1163.52 1950.8 1166.39 C 1942.87 1178.29 1924.42 1185.67 1910.99 1188.89 C 1907.11 1189.82 1894.74 1191.93 1891.59 1189.78 C 1889.31 1188.21 1887.73 1177.22 1887.06 1174 C 1912.46 1182.18 1937.65 1180.37 1953.54 1156.05 z"/>
<path transform="translate(0,0)" fill="rgb(255,255,255)" d="M 1106.96 1595.08 C 1118.14 1594.81 1120.28 1596.46 1128.79 1604.28 C 1121.49 1612.99 1119.95 1615.64 1116.99 1626.76 C 1116.99 1626.74 1116.77 1630.23 1115.63 1629.6 C 1100.76 1621.36 1094.78 1608.27 1106.96 1595.08 z"/>
<path transform="translate(0,0)" fill="rgb(255,255,255)" d="M 1529.1 1599.94 C 1541.82 1600.78 1543.75 1600.36 1552.9 1609.17 C 1550.24 1613.94 1547.49 1618.7 1545.77 1623.92 L 1545.31 1625.24 C 1542.75 1634 1543.36 1635.59 1535.09 1627.45 C 1527.62 1620.12 1528.5 1609.54 1529.1 1599.94 z"/>
<path transform="translate(0,0)" fill="rgb(255,255,255)" d="M 976.296 773.079 C 977.315 774.615 978.325 776.156 979.328 777.702 C 978.942 781.828 983.059 786.436 982.397 787.847 C 980.649 788.987 976.735 788.099 975.432 786.523 C 972.813 783.357 975.955 778.482 976.179 775.038 L 976.296 773.079 z"/>
<path transform="translate(0,0)" fill="rgb(147,148,150)" d="M 1953.54 1156.05 C 1953.85 1154.79 1956.12 1147.88 1957.34 1147.89 C 1958.48 1149.28 1956.25 1155.29 1955.8 1156.72 L 1953.54 1156.05 z"/>
<path transform="translate(0,0)" fill="rgb(147,148,150)" d="M 976.296 773.079 C 976.855 772.232 977.565 770.795 978.451 770.471 C 979.31 770.911 979.251 776.531 979.328 777.702 C 978.325 776.156 977.315 774.615 976.296 773.079 z"/>
<path transform="translate(0,0)" fill="rgb(14,13,13)" d="M 393.307 637.419 C 480.085 631.345 559.408 674.94 608.894 744.933 C 668.438 829.153 674.096 946.862 622.768 1036.45 C 618.115 1044.57 607.32 1051.83 606.017 1062.06 C 605.53 1072.5 617.449 1082.02 622.137 1090.69 C 671.935 1182.83 729.853 1279.44 820.77 1336.33 C 830.009 1342.11 842.417 1350.98 840.721 1363.41 C 839.487 1370.78 833.289 1377.92 826.941 1381.42 C 786.899 1403.47 738.885 1400.08 696.368 1390.2 C 694.371 1486.76 667.599 1566.73 579.168 1617.26 C 593.493 1626.28 607.13 1636.17 611.792 1653.24 C 616.2 1669.39 607.208 1688.14 588.875 1687.21 C 583.971 1686.96 577.886 1688.11 573.103 1689.08 C 569.979 1693.65 567.43 1698.13 563.262 1701.86 C 550.777 1713.03 530.246 1708.66 514.261 1706.8 C 492.738 1724.79 484.935 1726.96 457.653 1720.43 C 441.427 1714.26 434.461 1716.62 417.054 1718.07 C 408.317 1723.44 401.601 1732.8 392.835 1738.06 C 373.906 1749.43 358.154 1734.93 341.271 1734.76 C 329.49 1735.84 318.665 1745.74 306.766 1746.43 C 276.377 1748.18 249.798 1723.06 229.619 1703.7 C 213.976 1688.68 195.36 1671.98 192.005 1649.9 C 190.616 1640.76 194.085 1633.98 199.679 1627.42 C 196.457 1625.75 193.306 1623.95 190.235 1622.02 C 135.405 1587.02 103.661 1531.52 89.749 1469.18 C 74.1722 1470.49 60.0051 1470.2 45.4766 1467.38 C -4.66904 1457.01 4.17786 1445.22 30.549 1412.53 C 69.4008 1364.37 83.5905 1295.45 102.588 1238.97 C 123.333 1177.29 162.279 1095.42 202.807 1045.26 C 169.282 1003.24 156.095 973.942 150.861 918.975 C 144.555 852.744 169.5 777.128 213.191 726.624 C 261.115 671.226 320.523 642.652 393.307 637.419 z"/>
<path transform="translate(0,0)" fill="rgb(255,255,255)" d="M 490.342 1133.4 C 514.933 1131.11 542.118 1141.68 560.958 1157.15 C 612.672 1199.61 639.73 1287.14 646.778 1351.62 C 654.77 1424.74 643.442 1500.24 595.694 1558.79 C 570.375 1589.83 531.21 1617.9 492.334 1630.02 C 481.845 1633.28 443.311 1636.51 431.238 1637.71 L 430.103 1637.83 C 421.245 1638.72 385.418 1641.8 379.199 1639.83 C 314.331 1619.32 281.925 1547.14 276.67 1489.52 C 265.259 1364.36 351.043 1146.53 490.342 1133.4 z"/>
<path transform="translate(0,0)" fill="rgb(255,255,255)" d="M 217.172 1048.2 C 253.814 1074.91 275.907 1084.75 320.213 1095.76 C 406.058 1117.09 486.058 1104.85 568.86 1077.87 C 579.799 1093.16 590.882 1115.1 598.717 1132.01 C 648.685 1239.84 703.198 1375.97 658.345 1494.18 C 635.396 1554.67 592.305 1593.32 534.42 1619.69 L 533.389 1617.41 C 588.114 1586.54 627.977 1534.79 643.86 1474 C 667.138 1388.29 648.587 1281.55 605.712 1204.24 C 566.482 1133.51 499.839 1105.2 427.005 1148.81 C 348.727 1195.67 306.304 1287.66 283.208 1372.74 C 266.06 1438.46 263.265 1516.91 298.432 1576.95 C 315.041 1605.31 334.202 1620.92 361.432 1637.7 L 365.861 1640.16 L 365.278 1641.11 L 360.56 1641.61 C 350.76 1640.7 339.877 1641.11 329.911 1640.28 C 285.135 1636.54 237.862 1630.86 199.364 1605.69 C 143.359 1569.06 122.079 1524.54 107.275 1462.85 C 164.523 1449.2 203.207 1428.59 237.237 1378.1 C 273.876 1323.74 304.337 1256.44 313.187 1191.03 C 314.276 1182.99 316.201 1168.06 314.871 1160.73 L 313.742 1160.27 C 310.181 1164.88 308.453 1189.67 306.234 1198.97 C 286.827 1280.31 241.503 1372.91 168.613 1418.03 C 130.314 1441.74 78.1272 1454.21 33.6134 1443.52 C 82.8807 1376.64 95.9994 1312.6 121.208 1234.97 C 136.983 1186.39 159.187 1140.34 185.886 1097.01 C 196.701 1079.46 204.612 1065.09 217.172 1048.2 z"/>
<path transform="translate(0,0)" fill="rgb(255,255,255)" d="M 581.209 787.207 C 623.281 783.755 630.281 828.565 635.703 859.498 C 649.053 935.661 622.542 1014.7 568.78 1069.58 C 562.72 1075.76 541.628 1079.93 533.472 1082.68 C 481.034 1097.12 423.348 1105.92 369.054 1098.58 C 326.611 1092.83 288.075 1066.26 262.642 1032.75 C 248.641 1012.86 239.029 990.219 234.444 966.328 C 226.47 922.761 231.86 878.875 257.056 843.092 C 307.362 771.647 403.713 773.89 455.09 842.478 C 462.729 852.677 477.177 872.739 487.299 879.241 C 521.377 901.132 532.376 857.738 537.142 833.204 C 542.669 811.054 558.778 791.378 581.209 787.207 z"/>
<path transform="translate(0,0)" fill="rgb(14,13,13)" d="M 502.392 928.349 C 517.384 926.979 535.376 936.473 547.74 944.079 C 567.401 956.173 581.401 971.964 592.412 992.054 C 571.851 1015.2 541.699 1028.24 511.199 1031.17 C 481.354 1032.04 453.795 1023.9 435.193 998.961 C 429.237 990.975 423.913 982.566 418.218 974.38 C 443.733 952.106 467.271 932.563 502.392 928.349 z"/>
<path transform="translate(0,0)" fill="rgb(255,255,255)" d="M 498.964 933.254 C 532.163 930.283 570.959 962.615 585.343 991.206 C 564.352 999.77 537.322 997.836 515.238 995.253 C 491.3 993.242 447.919 982.908 426.072 974.275 C 444.38 955.155 472.9 938.542 498.964 933.254 z"/>
<path transform="translate(0,0)" fill="rgb(255,255,255)" d="M 429.491 981.469 C 482.162 996.038 522.201 1005.8 577.751 999.482 C 572.382 1003.64 568.383 1006.3 562.656 1009.97 C 512.676 1038.04 459.792 1034.02 429.491 981.469 z"/>
<path transform="translate(0,0)" fill="rgb(14,13,13)" d="M 368.725 858.114 C 408.984 854.74 431.202 894.947 416.171 930.02 C 410.149 944.073 399.682 950.273 385.886 955.547 C 325.07 963.5 312.277 873.943 368.725 858.114 z"/>
<path transform="translate(0,0)" fill="rgb(255,255,255)" d="M 385.227 869.113 C 395.654 867.683 405.268 874.971 406.707 885.397 C 408.145 895.822 400.865 905.442 390.44 906.889 C 380.004 908.338 370.371 901.047 368.931 890.61 C 367.49 880.172 374.789 870.545 385.227 869.113 z"/>
<path transform="translate(0,0)" fill="rgb(255,255,255)" d="M 401.376 919.767 C 413.691 920.382 416.206 930.001 408.396 938.303 L 407.176 939.631 C 394.763 939.878 393.139 928.323 401.376 919.767 z"/>
<path transform="translate(0,0)" fill="rgb(14,13,13)" d="M 585.534 843.185 C 611.328 840.895 622.504 856.26 626.999 880.501 C 631.265 903.51 618.472 925.279 597.079 934.476 C 583.516 935.334 574.446 931.829 565.927 920.999 C 557.145 909.642 553.349 895.208 555.407 881.001 C 558.617 861.653 566.234 849.299 585.534 843.185 z"/>
<path transform="translate(0,0)" fill="rgb(255,255,255)" d="M 597.123 852.964 C 610.695 852.932 613.472 857.769 617.755 869.978 C 617.227 872.002 616.652 874.013 616.03 876.01 C 614.273 881.67 611.525 886.071 605.887 888.446 L 604.387 889.102 C 580.121 888.463 577.607 863.671 597.123 852.964 z"/>
<path transform="translate(0,0)" fill="rgb(255,255,255)" d="M 610.423 899.803 C 624.566 898.563 622.634 908.481 615.764 917.206 C 603.576 916.799 602.101 907.868 610.423 899.803 z"/>
<path transform="translate(0,0)" fill="rgb(255,255,255)" d="M 313.413 1088.47 C 261.149 1073.94 215.081 1052.48 192.321 1000.33 C 166.533 941.238 164.783 877.488 186.743 816.848 C 207.553 758.081 250.98 710.064 307.368 683.475 C 420.223 630.795 562.194 679.419 615.186 792.573 L 611.369 790.563 C 570.123 769.114 542.479 794.142 531.524 833.627 C 527.477 848.212 525.322 874.251 508.011 879.652 C 492.623 884.454 477.072 863.084 469.139 852.331 C 453.996 831.806 436.473 812.336 413.869 799.798 C 385.522 784.066 352.01 780.492 320.983 789.891 C 211.363 822.159 200.162 980.064 273.024 1052.89 C 288.596 1068.45 298.164 1076.29 317.777 1086.6 L 313.413 1088.47 z"/>
<path transform="translate(0,0)" fill="rgb(255,255,255)" d="M 218.848 1637.25 C 263.371 1635.18 296.331 1646.36 340.844 1647.81 C 359.664 1650.14 381.58 1644.52 399.718 1648.52 C 420.728 1653.14 463.529 1690.7 427.879 1705.34 C 420.486 1704.91 414.029 1703.33 406.054 1702.95 C 393.299 1706.69 393.025 1713.69 383.782 1719.39 C 369.013 1728.48 344.195 1712.87 330.862 1715.66 C 315.921 1718.79 308.682 1730.88 288.473 1723.98 C 258.333 1712.82 228.841 1686.63 212.495 1659.17 C 206.902 1649.78 208.394 1641.42 218.848 1637.25 z"/>
<path transform="translate(0,0)" fill="rgb(255,255,255)" d="M 581.527 1067.03 C 584.046 1069.62 588.467 1077.21 590.984 1080.58 C 631.456 1134.75 659.417 1197.98 700.476 1251.59 C 723.097 1281.67 749.945 1308.33 780.188 1330.74 C 791.482 1339.12 803.222 1346.86 815.058 1354.45 C 816.99 1355.69 817.19 1357.61 817.224 1359.68 C 815.248 1362.65 811.977 1363.59 808.616 1365.09 C 770.499 1380.67 724.662 1374.17 686.162 1364.02 C 671.926 1272.67 639.79 1188.97 597.036 1107.15 C 591.094 1095.78 584.216 1084.99 578.269 1073.59 C 578.431 1070.08 579.005 1070.5 581.527 1067.03 z"/>
<path transform="translate(0,0)" fill="rgb(255,255,255)" d="M 553.093 1623.06 C 564.677 1624.98 597.525 1647.92 597.76 1662.16 C 594.095 1673.41 576.02 1669.96 567.829 1671.2 C 562.865 1671.96 557.146 1683.68 551.992 1687.11 C 541.711 1693.96 520.595 1687.56 510.865 1690.16 C 488.838 1696.06 494.434 1707.13 467.307 1701.81 L 461.542 1699.77 C 458.724 1697.27 458.806 1690.61 457.39 1686.99 C 450.741 1670 434.961 1655.6 419.96 1646.41 C 464.606 1643.84 510.536 1636.83 553.093 1623.06 z"/>
<path transform="translate(0,0)" fill="rgb(194,194,195)" d="M 317.777 1086.6 C 320.086 1087.42 324.328 1089.84 326.537 1091.1 C 322.146 1090.31 317.8 1089.29 313.413 1088.47 L 317.777 1086.6 z"/>
<path transform="translate(0,0)" fill="rgb(194,194,195)" d="M 520.627 1624.18 C 523.705 1622.54 530.548 1618.57 533.389 1617.41 L 534.42 1619.69 C 529.459 1621.72 525.788 1622.75 520.627 1624.18 z"/>
</svg>