<svg version="1.1" xmlns="http://www.w3.org/2000/svg" style="display: block;" viewBox="0 0 2048 2048" width="1024" height="1024" preserveAspectRatio="none" xmlns:c2pa="http://c2pa.org/manifest"><metadata><c2pa:manifest>AAAzs2p1bWIAAAAeanVtZGMycGEAEQAQgAAAqgA4m3EDYzJwYQAAADONanVtYgAAAEdqdW1kYzJtYQARABCAAACqADibcQN1cm46YzJwYTowZWZhYTc3ZC00NWNiLTQzMzgtYThiNy1hNjE0ZTA2YzdhZDQAAAAB4mp1bWIAAAApanVtZGMyYXMAEQAQgAAAqgA4m3EDYzJwYS5hc3NlcnRpb25zAAAAAO1qdW1iAAAAQWp1bWRjYm9yABEAEIAAAKoAOJtxE2MycGEuYWN0aW9ucy52MgAAAAAYYzJzaK0HoAwf5gtNIf+QjQyE50EAAACkY2JvcqFnYWN0aW9uc4GjZmFjdGlvbmxjMnBhLmNyZWF0ZWRxZGlnaXRhbFNvdXJjZVR5cGV4Rmh0dHA6Ly9jdi5pcHRjLm9yZy9uZXdzY29kZXMvZGlnaXRhbHNvdXJjZXR5cGUvdHJhaW5lZEFsZ29yaXRobWljTWVkaWFrZGVzY3JpcHRpb252Q3JlYXRlZCBieSBSZWNyYWZ0IEFJLgAAAMRqdW1iAAAAQGp1bWRjYm9yABEAEIAAAKoAOJtxE2MycGEuaGFzaC5kYXRhAAAAABhjMnNo8zgSObJ7usUA/c0KA6sDLQAAAHxjYm9ypWpleGNsdXNpb25zgaJlc3RhcnQY22ZsZW5ndGgZRPBkbmFtZW5qdW1iZiBtYW5pZmVzdGNhbGdmc2hhMjU2ZGhhc2hYILxCYF8EniRN+QR48E2NDHsyToL7A2Tb3+yw1KjPyD4fY3BhZEkAAAAAAAAAAAAAAAI0anVtYgAAACdqdW1kYzJjbAARABCAAACqADibcQNjMnBhLmNsYWltLnYyAAAAAgVjYm9ypmppbnN0YW5jZUlEeCx4bXA6aWlkOjdiYTI4ZGU0LTQ0MmYtNGNlNS1iYTI0LThhYjJmZGQ1MjI3NHRjbGFpbV9nZW5lcmF0b3JfaW5mb6NkbmFtZWpyZWNyYWZ0LmFpZ3ZlcnNpb254KDgxY2U4MmUyYzVjM2NiZmJlOGM2ZmJlMTc5ZDVmOGQ5MWM0MDljZTF3b3JnLmNvbnRlbnRhdXRoLmMycGFfcnNmMC45MC43aXNpZ25hdHVyZXhNc2VsZiNqdW1iZj0vYzJwYS91cm46YzJwYTowZWZhYTc3ZC00NWNiLTQzMzgtYThiNy1hNjE0ZTA2YzdhZDQvYzJwYS5zaWduYXR1cmVyY3JlYXRlZF9hc3NlcnRpb25zgqJjdXJseCpzZWxmI2p1bWJmPWMycGEuYXNzZXJ0aW9ucy9jMnBhLmFjdGlvbnMudjJkaGFzaFggxQ53Wn2Gb3AlYZOCIY6wN2z5m0VMaNbjVoa7zTUNVkiiY3VybHgpc2VsZiNqdW1iZj1jMnBhLmFzc2VydGlvbnMvYzJwYS5oYXNoLmRhdGFkaGFzaFggBZ7cqTVKhxPpJubni6SG/2ghsa/AEMl3olw8RTDiIE5oZGM6dGl0bGV4GlJlY3JhZnQgQUkgR2VuZXJhdGVkIEltYWdlY2FsZ2ZzaGEyNTYAAC8oanVtYgAAAChqdW1kYzJjcwARABCAAACqADibcQNjMnBhLnNpZ25hdHVyZQAAAC74Y2JvctKEWQPsogEmGCGCWQH0MIIB8DCCAZWgAwIBAgIUJcFH1Va4pZJDhzepwEtzPPNj2YMwCgYIKoZIzj0EAwIwQTELMAkGA1UEBhMCVVMxEzARBgNVBAoMClJlY3JhZnQgQUkxHTAbBgNVBAMMFFJlY3JhZnQgQzJQQSBSb290IENBMB4XDTI2MDkxMDE2NTIzNFoXDTI3MDkxMDE2NTIzNFowNzELMAkGA1UEBhMCVVMxEzARBgNVBAoMClJlY3JhZnQgQUkxEzARBgNVBAMMCnJlY3JhZnQuYWkwWTATBgcqhkjOPQIBBggqhkjOPQMBBwNCAASoOPdqG3YmNRdGd+dltfh1ikcE/nkLm8YK10H29taFa8iegusHYB1678yl5Bs18hLaV/Fhd+Ni32xAlnHdbimFo3UwczAMBgNVHRMBAf8EAjAAMA4GA1UdDwEB/wQEAwIGwDATBgNVHSUEDDAKBggrBgEFBQcDBDAdBgNVHQ4EFgQUgVwhvbEXPSSgCubOfUHxCtuoVAQwHwYDVR0jBBgwFoAUc9yF+sfWlRHeWv2Iucaec5jwdAgwCgYIKoZIzj0EAwIDSQAwRgIhAJltDpQN+vbXITLxb+8BNwSL6/5WktO4Sevkb0VXjtfWAiEAqhoz7z/sN32NxdnnZsQVTeu3P7CgGtJdXFx283fp08RZAewwggHoMIIBjaADAgECAhQAydo/NKOQWWu/4V5FktVQHX7jTDAKBggqhkjOPQQDAjBBMQswCQYDVQQGEwJVUzETMBEGA1UECgwKUmVjcmFmdCBBSTEdMBsGA1UEAwwUUmVjcmFmdCBDMlBBIFJvb3QgQ0EwHhcNMjYwOTEwMTY1MjM0WhcNMzYwOTA3MTY1MjM0WjBBMQswCQYDVQQGEwJVUzETMBEGA1UECgwKUmVjcmFmdCBBSTEdMBsGA1UEAwwUUmVjcmFmdCBDMlBBIFJvb3QgQ0EwWTATBgcqhkjOPQIBBggqhkjOPQMBBwNCAAQbQ+eF6fkpnHhTwrMxSBLh/JhROWkzsC8L8jN1r1Rlf8oECvzEFk3WujloPtNs3PLADriqR5rGtd+8giFuiTLno2MwYTAfBgNVHSMEGDAWgBRz3IX6x9aVEd5a/Yi5xp5zmPB0CDAPBgNVHRMBAf8EBTADAQH/MA4GA1UdDwEB/wQEAwIBhjAdBgNVHQ4EFgQUc9yF+sfWlRHeWv2Iucaec5jwdAgwCgYIKoZIzj0EAwIDSQAwRgIhAND2Z+xryBRnMbxk8eAzMcAq8bzl0rfA9Y2z7q5QoEUeAiEA6ZbI3e47h5clRZaARSOOotKXsK/YQMWC3vj91d3bmlOhY3BhZFkqtAAAAAAAAAAAAAAAAAAAAAAAAAAAAAAAAAAAAAAAAAAAAAAAAAAAAAAAAAAAAAAAAAAAAAAAAAAAAAAAAAAAAAAAAAAAAAAAAAAAAAAAAAAAAAAAAAAAAAAAAAAAAAAAAAAAAAAAAAAAAAAAAAAAAAAAAAAAAAAAAAAAAAAAAAAAAAAAAAAAAAAAAAAAAAAAAAAAAAAAAAAAAAAAAAAAAAAAAAAAAAAAAAAAAAAAAAAAAAAAAAAAAAAAAAAAAAAAAAAAAAAAAAAAAAAAAAAAAAAAAAAAAAAAAAAAAAAAAAAAAAAAAAAAAAAAAAAAAAAAAAAAAAAAAAAAAAAAAAAAAAAAAAAAAAAAAAAAAAAAAAAAAAAAAAAAAAAAAAAAAAAAAAAAAAAAAAAAAAAAAAAAAAAAAAAAAAAAAAAAAAAAAAAAAAAAAAAAAAAAAAAAAAAAAAAAAAAAAAAAAAAAAAAAAAAAAAAAAAAAAAAAAAAAAAAAAAAAAAAAAAAAAAAAAAAAAAAAAAAAAAAAAAAAAAAAAAAAAAAAAAAAAAAAAAAAAAAAAAAAAAAAAAAAAAAAAAAAAAAAAAAAAAAAAAAAAAAAAAAAAAAAAAAAAAAAAAAAAAAAAAAAAAAAAAAAAAAAAAAAAAAAAAAAAAAAAAAAAAAAAAAAAAAAAAAAAAAAAAAAAAAAAAAAAAAAAAAAAAAAAAAAAAAAAAAAAAAAAAAAAAAAAAAAAAAAAAAAAAAAAAAAAAAAAAAAAAAAAAAAAAAAAAAAAAAAAAAAAAAAAAAAAAAAAAAAAAAAAAAAAAAAAAAAAAAAAAAAAAAAAAAAAAAAAAAAAAAAAAAAAAAAAAAAAAAAAAAAAAAAAAAAAAAAAAAAAAAAAAAAAAAAAAAAAAAAAAAAAAAAAAAAAAAAAAAAAAAAAAAAAAAAAAAAAAAAAAAAAAAAAAAAAAAAAAAAAAAAAAAAAAAAAAAAAAAAAAAAAAAAAAAAAAAAAAAAAAAAAAAAAAAAAAAAAAAAAAAAAAAAAAAAAAAAAAAAAAAAAAAAAAAAAAAAAAAAAAAAAAAAAAAAAAAAAAAAAAAAAAAAAAAAAAAAAAAAAAAAAAAAAAAAAAAAAAAAAAAAAAAAAAAAAAAAAAAAAAAAAAAAAAAAAAAAAAAAAAAAAAAAAAAAAAAAAAAAAAAAAAAAAAAAAAAAAAAAAAAAAAAAAAAAAAAAAAAAAAAAAAAAAAAAAAAAAAAAAAAAAAAAAAAAAAAAAAAAAAAAAAAAAAAAAAAAAAAAAAAAAAAAAAAAAAAAAAAAAAAAAAAAAAAAAAAAAAAAAAAAAAAAAAAAAAAAAAAAAAAAAAAAAAAAAAAAAAAAAAAAAAAAAAAAAAAAAAAAAAAAAAAAAAAAAAAAAAAAAAAAAAAAAAAAAAAAAAAAAAAAAAAAAAAAAAAAAAAAAAAAAAAAAAAAAAAAAAAAAAAAAAAAAAAAAAAAAAAAAAAAAAAAAAAAAAAAAAAAAAAAAAAAAAAAAAAAAAAAAAAAAAAAAAAAAAAAAAAAAAAAAAAAAAAAAAAAAAAAAAAAAAAAAAAAAAAAAAAAAAAAAAAAAAAAAAAAAAAAAAAAAAAAAAAAAAAAAAAAAAAAAAAAAAAAAAAAAAAAAAAAAAAAAAAAAAAAAAAAAAAAAAAAAAAAAAAAAAAAAAAAAAAAAAAAAAAAAAAAAAAAAAAAAAAAAAAAAAAAAAAAAAAAAAAAAAAAAAAAAAAAAAAAAAAAAAAAAAAAAAAAAAAAAAAAAAAAAAAAAAAAAAAAAAAAAAAAAAAAAAAAAAAAAAAAAAAAAAAAAAAAAAAAAAAAAAAAAAAAAAAAAAAAAAAAAAAAAAAAAAAAAAAAAAAAAAAAAAAAAAAAAAAAAAAAAAAAAAAAAAAAAAAAAAAAAAAAAAAAAAAAAAAAAAAAAAAAAAAAAAAAAAAAAAAAAAAAAAAAAAAAAAAAAAAAAAAAAAAAAAAAAAAAAAAAAAAAAAAAAAAAAAAAAAAAAAAAAAAAAAAAAAAAAAAAAAAAAAAAAAAAAAAAAAAAAAAAAAAAAAAAAAAAAAAAAAAAAAAAAAAAAAAAAAAAAAAAAAAAAAAAAAAAAAAAAAAAAAAAAAAAAAAAAAAAAAAAAAAAAAAAAAAAAAAAAAAAAAAAAAAAAAAAAAAAAAAAAAAAAAAAAAAAAAAAAAAAAAAAAAAAAAAAAAAAAAAAAAAAAAAAAAAAAAAAAAAAAAAAAAAAAAAAAAAAAAAAAAAAAAAAAAAAAAAAAAAAAAAAAAAAAAAAAAAAAAAAAAAAAAAAAAAAAAAAAAAAAAAAAAAAAAAAAAAAAAAAAAAAAAAAAAAAAAAAAAAAAAAAAAAAAAAAAAAAAAAAAAAAAAAAAAAAAAAAAAAAAAAAAAAAAAAAAAAAAAAAAAAAAAAAAAAAAAAAAAAAAAAAAAAAAAAAAAAAAAAAAAAAAAAAAAAAAAAAAAAAAAAAAAAAAAAAAAAAAAAAAAAAAAAAAAAAAAAAAAAAAAAAAAAAAAAAAAAAAAAAAAAAAAAAAAAAAAAAAAAAAAAAAAAAAAAAAAAAAAAAAAAAAAAAAAAAAAAAAAAAAAAAAAAAAAAAAAAAAAAAAAAAAAAAAAAAAAAAAAAAAAAAAAAAAAAAAAAAAAAAAAAAAAAAAAAAAAAAAAAAAAAAAAAAAAAAAAAAAAAAAAAAAAAAAAAAAAAAAAAAAAAAAAAAAAAAAAAAAAAAAAAAAAAAAAAAAAAAAAAAAAAAAAAAAAAAAAAAAAAAAAAAAAAAAAAAAAAAAAAAAAAAAAAAAAAAAAAAAAAAAAAAAAAAAAAAAAAAAAAAAAAAAAAAAAAAAAAAAAAAAAAAAAAAAAAAAAAAAAAAAAAAAAAAAAAAAAAAAAAAAAAAAAAAAAAAAAAAAAAAAAAAAAAAAAAAAAAAAAAAAAAAAAAAAAAAAAAAAAAAAAAAAAAAAAAAAAAAAAAAAAAAAAAAAAAAAAAAAAAAAAAAAAAAAAAAAAAAAAAAAAAAAAAAAAAAAAAAAAAAAAAAAAAAAAAAAAAAAAAAAAAAAAAAAAAAAAAAAAAAAAAAAAAAAAAAAAAAAAAAAAAAAAAAAAAAAAAAAAAAAAAAAAAAAAAAAAAAAAAAAAAAAAAAAAAAAAAAAAAAAAAAAAAAAAAAAAAAAAAAAAAAAAAAAAAAAAAAAAAAAAAAAAAAAAAAAAAAAAAAAAAAAAAAAAAAAAAAAAAAAAAAAAAAAAAAAAAAAAAAAAAAAAAAAAAAAAAAAAAAAAAAAAAAAAAAAAAAAAAAAAAAAAAAAAAAAAAAAAAAAAAAAAAAAAAAAAAAAAAAAAAAAAAAAAAAAAAAAAAAAAAAAAAAAAAAAAAAAAAAAAAAAAAAAAAAAAAAAAAAAAAAAAAAAAAAAAAAAAAAAAAAAAAAAAAAAAAAAAAAAAAAAAAAAAAAAAAAAAAAAAAAAAAAAAAAAAAAAAAAAAAAAAAAAAAAAAAAAAAAAAAAAAAAAAAAAAAAAAAAAAAAAAAAAAAAAAAAAAAAAAAAAAAAAAAAAAAAAAAAAAAAAAAAAAAAAAAAAAAAAAAAAAAAAAAAAAAAAAAAAAAAAAAAAAAAAAAAAAAAAAAAAAAAAAAAAAAAAAAAAAAAAAAAAAAAAAAAAAAAAAAAAAAAAAAAAAAAAAAAAAAAAAAAAAAAAAAAAAAAAAAAAAAAAAAAAAAAAAAAAAAAAAAAAAAAAAAAAAAAAAAAAAAAAAAAAAAAAAAAAAAAAAAAAAAAAAAAAAAAAAAAAAAAAAAAAAAAAAAAAAAAAAAAAAAAAAAAAAAAAAAAAAAAAAAAAAAAAAAAAAAAAAAAAAAAAAAAAAAAAAAAAAAAAAAAAAAAAAAAAAAAAAAAAAAAAAAAAAAAAAAAAAAAAAAAAAAAAAAAAAAAAAAAAAAAAAAAAAAAAAAAAAAAAAAAAAAAAAAAAAAAAAAAAAAAAAAAAAAAAAAAAAAAAAAAAAAAAAAAAAAAAAAAAAAAAAAAAAAAAAAAAAAAAAAAAAAAAAAAAAAAAAAAAAAAAAAAAAAAAAAAAAAAAAAAAAAAAAAAAAAAAAAAAAAAAAAAAAAAAAAAAAAAAAAAAAAAAAAAAAAAAAAAAAAAAAAAAAAAAAAAAAAAAAAAAAAAAAAAAAAAAAAAAAAAAAAAAAAAAAAAAAAAAAAAAAAAAAAAAAAAAAAAAAAAAAAAAAAAAAAAAAAAAAAAAAAAAAAAAAAAAAAAAAAAAAAAAAAAAAAAAAAAAAAAAAAAAAAAAAAAAAAAAAAAAAAAAAAAAAAAAAAAAAAAAAAAAAAAAAAAAAAAAAAAAAAAAAAAAAAAAAAAAAAAAAAAAAAAAAAAAAAAAAAAAAAAAAAAAAAAAAAAAAAAAAAAAAAAAAAAAAAAAAAAAAAAAAAAAAAAAAAAAAAAAAAAAAAAAAAAAAAAAAAAAAAAAAAAAAAAAAAAAAAAAAAAAAAAAAAAAAAAAAAAAAAAAAAAAAAAAAAAAAAAAAAAAAAAAAAAAAAAAAAAAAAAAAAAAAAAAAAAAAAAAAAAAAAAAAAAAAAAAAAAAAAAAAAAAAAAAAAAAAAAAAAAAAAAAAAAAAAAAAAAAAAAAAAAAAAAAAAAAAAAAAAAAAAAAAAAAAAAAAAAAAAAAAAAAAAAAAAAAAAAAAAAAAAAAAAAAAAAAAAAAAAAAAAAAAAAAAAAAAAAAAAAAAAAAAAAAAAAAAAAAAAAAAAAAAAAAAAAAAAAAAAAAAAAAAAAAAAAAAAAAAAAAAAAAAAAAAAAAAAAAAAAAAAAAAAAAAAAAAAAAAAAAAAAAAAAAAAAAAAAAAAAAAAAAAAAAAAAAAAAAAAAAAAAAAAAAAAAAAAAAAAAAAAAAAAAAAAAAAAAAAAAAAAAAAAAAAAAAAAAAAAAAAAAAAAAAAAAAAAAAAAAAAAAAAAAAAAAAAAAAAAAAAAAAAAAAAAAAAAAAAAAAAAAAAAAAAAAAAAAAAAAAAAAAAAAAAAAAAAAAAAAAAAAAAAAAAAAAAAAAAAAAAAAAAAAAAAAAAAAAAAAAAAAAAAAAAAAAAAAAAAAAAAAAAAAAAAAAAAAAAAAAAAAAAAAAAAAAAAAAAAAAAAAAAAAAAAAAAAAAAAAAAAAAAAAAAAAAAAAAAAAAAAAAAAAAAAAAAAAAAAAAAAAAAAAAAAAAAAAAAAAAAAAAAAAAAAAAAAAAAAAAAAAAAAAAAAAAAAAAAAAAAAAAAAAAAAAAAAAAAAAAAAAAAAAAAAAAAAAAAAAAAAAAAAAAAAAAAAAAAAAAAAAAAAAAAAAAAAAAAAAAAAAAAAAAAAAAAAAAAAAAAAAAAAAAAAAAAAAAAAAAAAAAAAAAAAAAAAAAAAAAAAAAAAAAAAAAAAAAAAAAAAAAAAAAAAAAAAAAAAAAAAAAAAAAAAAAAAAAAAAAAAAAAAAAAAAAAAAAAAAAAAAAAAAAAAAAAAAAAAAAAAAAAAAAAAAAAAAAAAAAAAAAAAAAAAAAAAAAAAAAAAAAAAAAAAAAAAAAAAAAAAAAAAAAAAAAAAAAAAAAAAAAAAAAAAAAAAAAAAAAAAAAAAAAAAAAAAAAAAAAAAAAAAAAAAAAAAAAAAAAAAAAAAAAAAAAAAAAAAAAAAAAAAAAAAAAAAAAAAAAAAAAAAAAAAAAAAAAAAAAAAAAAAAAAAAAAAAAAAAAAAAAAAAAAAAAAAAAAAAAAAAAAAAAAAAAAAAAAAAAAAAAAAAAAAAAAAAAAAAAAAAAAAAAAAAAAAAAAAAAAAAAAAAAAAAAAAAAAAAAAAAAAAAAAAAAAAAAAAAAAAAAAAAAAAAAAAAAAAAAAAAAAAAAAAAAAAAAAAAAAAAAAAAAAAAAAAAAAAAAAAAAAAAAAAAAAAAAAAAAAAAAAAAAAAAAAAAAAAAAAAAAAAAAAAAAAAAAAAAAAAAAAAAAAAAAAAAAAAAAAAAAAAAAAAAAAAAAAAAAAAAAAAAAAAAAAAAAAAAAAAAAAAAAAAAAAAAAAAAAAAAAAAAAAAAAAAAAAAAAAAAAAAAAAAAAAAAAAAAAAAAAAAAAAAAAAAAAAAAAAAAAAAAAAAAAAAAAAAAAAAAAAAAAAAAAAAAAAAAAAAAAAAAAAAAAAAAAAAAAAAAAAAAAAAAAAAAAAAAAAAAAAAAAAAAAAAAAAAAAAAAAAAAAAAAAAAAAAAAAAAAAAAAAAAAAAAAAAAAAAAAAAAAAAAAAAAAAAAAAAAAAAAAAAAAAAAAAAAAAAAAAAAAAAAAAAAAAAAAAAAAAAAAAAAAAAAAAAAAAAAAAAAAAAAAAAAAAAAAAAAAAAAAAAAAAAAAAAAAAAAAAAAAAAAAAAAAAAAAAAAAAAAAAAAAAAAAAAAAAAAAAAAAAAAAAAAAAAAAAAAAAAAAAAAAAAAAAAAAAAAAAAAAAAAAAAAAAAAAAAAAAAAAAAAAAAAAAAAAAAAAAAAAAAAAAAAAAAAAAAAAAAAAAAAAAAAAAAAAAAAAAAAAAAAAAAAAAAAAAAAAAAAAAAAAAAAAAAAAAAAAAAAAAAAAAAAAAAAAAAAAAAAAAAAAAAAAAAAAAAAAAAAAAAAAAAAAAAAAAAAAAAAAAAAAAAAAAAAAAAAAAAAAAAAAAAAAAAAAAAAAAAAAAAAAAAAAAAAAAAAAAAAAAAAAAAAAAAAAAAAAAAAAAAAAAAAAAAAAAAAAAAAAAAAAAAAAAAAAAAAAAAAAAAAAAAAAAAAAAAAAAAAAAAAAAAAAAAAAAAAAAAAAAAAAAAAAAAAAAAAAAAAAAAAAAAAAAAAAAAAAAAAAAAAAAAAAAAAAAAAAAAAAAAAAAAAAAAAAAAAAAAAAAAAAAAAAAAAAAAAAAAAAAAAAAAAAAAAAAAAAAAAAAAAAAAAAAAAAAAAAAAAAAAAAAAAAAAAAAAAAAAAAAAAAAAAAAAAAAAAAAAAAAAAAAAAAAAAAAAAAAAAAAAAAAAAAAAAAAAAAAAAAAAAAAAAAAAAAAAAAAAAAAAAAAAAAAAAAAAAAAAAAAAAAAAAAAAAAAAAAAAAAAAAAAAAAAAAAAAAAAAAAAAAAAAAAAAAAAAAAAAAAAAAAAAAAAAAAAAAAAAAAAAAAAAAAAAAAAAAAAAAAAAAAAAAAAAAAAAAAAAAAAAAAAAAAAAAAAAAAAAAAAAAAAAAAAAAAAAAAAAAAAAAAAAAAAAAAAAAAAAAAAAAAAAAAAAAAAAAAAAAAAAAAAAAAAAAAAAAAAAAAAAAAAAAAAAAAAAAAAAAAAAAAAAAAAAAAAAAAAAAAAAAAAAAAAAAAAAAAAAAAAAAAAAAAAAAAAAAAAAAAAAAAAAAAAAAAAAAAAAAAAAAAAAAAAAAAAAAAAAAAAAAAAAAAAAAAAAAAAAAAAAAAAAAAAAAAAAAAAAAAAAAAAAAAAAAAAAAAAAAAAAAAAAAAAAAAAAAAAAAAAAAAAAAAAAAAAAAAAAAAAAAAAAAAAAAAAAAAAAAAAAAAAAAAAAAAAAAAAAAAAAAAAAAAAAAAAAAAAAAAAAAAAAAAAAAAAAAAAAAAAAAAAAAAAAAAAAAAAAAAAAAAAAAAAAAAAAAAAAAAAAAAAAAAAAAAAAAAAAAAAAAAAAAAAAAAAAAAAAAAAAAAAAAAAAAAAAAAAAAAAAAAAAAAAAAAAAAAAAAAAAAAAAAAAAAAAAAAAAAAAAAAAAAAAAAAAAAAAAAAAAAAAAAAAAAAAAAAAAAAAAAAAAAAAAAAAAAAAAAAAAAAAAAAAAAAAAAAAAAAAAAAAAAAAAAAAAAAAAAAAAAAAAAAAAAAAAAAAAAAAAAAAAAAAAAAAAAAAAAAAAAAAAAAAAAAAAAAAAAAAAAAAAAAAAAAAAAAAAAAAAAAAAAAAAAAAAAAAAAAAAAAAAAAAAAAAAAAAAAAAAAAAAAAAAAAAAAAAAAAAAAAAAAAAAAAAAAAAAAAAAAAAAAAAAAAAAAAAAAAAAAAAAAAAAAAAAAAAAAAAAAAAAAAAAAAAAAAAAAAAAAAAAAAAAAAAAAAAAAAAAAAAAAAAAAAAAAAAAAAAAAAAAAAAAAAAAAAAAAAAAAAAAAAAAAAAAAAAAAAAAAAAAAAAAAAAAAAAAAAAAAAAAAAAAAAAAAAAAAAAAAAAAAAAAAAAAAAAAAAAAAAAAAAAAAAAAAAAAAAAAAAAAAAAAAAAAAAAAAAAAAAAAAAAAAAAAAAAAAAAAAAAAAAAAAAAAAAAAAAAAAAAAAAAAAAAAAAAAAAAAAAAAAAAAAAAAAAAAAAAAAAAAAAAAAAAAAAAAAAAAAAAAAAAAAAAAAAAAAAAAAAAAAAAAAAAAAAAAAAAAAAAAAAAAAAAAAAAAAAAAAAAAAAAAAAAAAAAAAAAAAAAAAAAAAAAAAAAAAAAAAAAAAAAAAAAAAAAAAAAAAAAAAAAAAAAAAAAAAAAAAAAAAAAAAAAAAAAAAAAAAAAAAAAAAAAAAAAAAAAAAAAAAAAAAAAAAAAAAAAAAAAAAAAAAAAAAAAAAAAAAAAAAAAAAAAAAAAAAAAAAAAAAAAAAAAAAAAAAAAAAAAAAAAAAAAAAAAAAAAAAAAAAAAAAAAAAAAAAAAAAAAAAAAAAAAAAAAAAAAAAAAAAAAAAAAAAAAAAAAAAAAAAAAAAAAAAAAAAAAAAAAAAAAAAAAAAAAAAAAAAAAAAAAAAAAAAAAAAAAAAAAAAAAAAAAAAAAAAAAAAAAAAAAAAAAAAAAAAAAAAAAAAAAAAAAAAAAAAAAAAAAAAAAAAAAAAAAAAAAAAAAAAAAAAAAAAAAAAAAAAAAAAAAAAAAAAAAAAAAAAAAAAAAAAAAAAAAAAAAAAAAAAAAAAAAAAAAAAAAAAAAAAAAAAAAAAAAAAAAAAAAAAAAAAAAAAAAAAAAAAAAAAAAAAAAAAAAAAAAAAAAAAAAAAAAAAAAAAAAAAAAAAAAAAAAAAAAAAAAAAAAAAAAAAAAAAAAAAAAAAAAAAAAAAAAAAAAAAAAAAAAAAAAAAAAAAAAAAAAAAAAAAAAAAAAAAAAAAAAAAAAAAAAAAAAAAAAAAAAAAAAAAAAAAAAAAAAAAAAAAAAAAAAAAAAAAAAAAAAAAAAAAAAAAAAAAAAAAAAAAAAAAAAAAAAAAAAAAAAAAAAAAAAAAAAAAAAAAAAAAAAAAAAAAAAAAAAAAAAAAAAAAAAAAAAAAAAAAAAAAAAAAAAAAAAAAAAAAAAAAAAAAAAAAAAAAAAAAAAAAAAAAAAAAAAAAAAAAAAAAAAAAAAAAAAAAAAAAAAAAAAAAAAAAAAAAAAAAAAAAAAAAAAAAAAAAAAAAAAAAAAAAAAAAAAAAAAAAAAAAAAAAAAAAAAAAAAAAAAAAAAAAAAAAAAAAAAAAAAAAAAAAAAAAAAAAAAAAAAAAAAAAAAAAAAAAAAAAAAAAAAAAAAAAAAAAAAAAAAAAAAAAAAAAAAAAAAAAAAAAAAAAAAAAAAAAAAAAAAAAAAAAAAAAAAAAAAAAAAAAAAAAAAAAAAAAAAAAAAAAAAAAAAAAAAAAAAAAAAAAAAAAAAAAAAAAAAAAAAAAAAAAAAAAAAAAAAAAAAAAAAAAAAAAAAAAAAAAAAAAAAAAAAAAAAAAAAAAAAAAAAAAAAAAAAAAAAAAAAAAAAAAAAAAAAAAAAAAAAAAAAAAAAAAAAAAAAAAAAAAAAAAAAAAAAAAAAAAAAAAAAAAAAAAAAAAAAAAAAAAAAAAAAAAAAAAAAAAAAAAAAAAAAAAAAAAAAAAAAAAAAAAAAAAAAAAAAAAAAAAAAAAAAAAAAAAAAAAAAAAAAAAAAAAAAAAAAAAAAAAAAAAAAAAAAAAAAAAAAAAAAAAAAAAAAAAAAAAAAAAAAAAAAAAAAAAAAAAAAAAAAAAAAAAAAAAAAAAAAAAAAAAAAAAAAAAAAAAAAAAAAAAAAAAAAAAAAAAAAAAAAAAAAAAAAAAAAAAAAAAAAAAAAAAAAAAAAAAAAAAAAAAAAAAAAAAAAAAAAAAAAAAAAAAAAAAAAAAAAAAAAAAAAAAAAAAAAAAAAAAAAAAAAAAAAAAAAAAAAAAAAAAAAAAAAAAAAAAAAAAAAAAAAAAAAAAAAAAAAAAAAAAAAAAAAAAAAAAAAAAAAAAAAAAAAAAAAAAAAAAAAAAAAAAAAAAAAAAAAAAAAAAAAAAAAAAAAAAAAAAAAAAAAAAAAAAAAAAAAAAAAAAAAAAAAAAAAAAAAAAAAAAAAAAAAAAAAAAAAAAAAAAAAAAAAAAAAAAAAAAAAAAAAAAAAAAAAAAAAAAAAAAAAAAAAAAAAAAAAAAAAAAAAAAAAAAAAAAAAAAAAAAAAAAAAAAAAAAAAAAAAAAAAAAAAAAAAAAAAAAAAAAAAAAAAAAAAAAAAAAAAAAAAAAAAAAAAAAAAAAAAAAAAAAAAAAAAAAAAAAAAAAAAAAAAAAAAAAAAAAAAAAAAAAAAAAAAAAAAAAAAAAAAAAAAAAAAAAAAAAAAAAAAAAAAAAAAAAAAAAAAAAAAAAAAAAAAAAAAAAAAAAAAAAAAAAAAAAAAAAAAAAAAAAAAAAAAAAAAAAAAAAAAAAAAAAAAAAAAAAAAAAAAAAAAAAAAAAAAAAAAAAAAAAAAAAAAAAAAAAAAAAAAAAAAAAAAAAAAAAAAAAAAAAAAAAAAAAAAAAAAAAAAAAAAAAAAAAAAAAAAAAAAAAAAAAAAAAAAAAAAAAAAAAAAAAAAAAAAAAAAAAAAAAAAAAAAAAAAAAAAAAAAAAAAAAAAAAAAAAAAAAAAAAAAAAAAAAAAAAAAAAAAAAAAAAAAAAAAAAAAAAAAAAAAAAAAAAAAAAAAAAAAAAAAAAAAAAAAAAAAAAAAAAAAAAAAAAAAAAAAAAAAAAAAAAAAAAAAAAAAAAAAAAAAAAAAAAAAAAAAAAAAAAAAAAAAAAAAAAAAAAAAAAAAAAAAAAAAAAAAAAAAAAAAAAAAAAAAAAAAAAAAAAAAAAAAAAAAAAAAAAAAAAAAAAAAAAAAAAAAAAAAAAAAAAAAAAAAAAAAAAAAAAAAAAAAAAAAAAAAAAAAAAAAAAAAAAAAAAAAAAAAAAAAAAAAAAAAAAAAAAAAAAAAAAAAAAAAAAAAAAAAAAAAAAAAAAAAAAAAAAAAAAAAAAAAAAAAAAAAAAAAAAAAAAAAAAAAAAAAAAAAAAAAAAAAAAAAAAAAAAAAAAAAAAAAAAAAAAAAAAAAAAAAAAAAAAAAAAAAAAAAAAAAAAAAAAAAAAAAAAAAAAAAAAAAAAAAAAAAAAAAAAAAAAAAAAAAAAAAAAAAAAAAAAAAAAAAAAAAAAAAAAAAAAAAAAAAAAAAAAAAAAAAAAAAAAAAAAAAAAAAAAAAAAAAAAAAAAAAAAAAAAAAAAAAAAAAAAAAAAAAAAAAAAAAAAAAAAAAAAAAAAAAAAAAAAAAAAAAAAAAAAAAAAAAAAAAAAAAAAAAAAAAAAAAAAAAAAAAAAAAAAAAAAAAAAAAAAAAAAAAAAAAAAAAAAAAAAAAAAAAAAAAAAAAAAAAAAAAAAAAAAAAAAAAAAAAAAAAAAAAAAAAAAAAAAAAAAAAAAAAAAAAAAAAAAAAAAAAAAAAAAAAAAAAAAAAAAAAAAAAAAAAAAAAAAAAAAAAAAAAAAAAAAAAAAAAAAAAAAAAAAAAAAAAAAAAAAAAAAAAAAAAAAAAAAAAAAAAAAAAAAAAAAAAAAAAAAAAAAAAAAAAAAAAAAAAAAAAAAAAAAAAAAAAAAAAAAAAAAAAAAAAAAAAAAAAAAAAAAAAAAAAAAAAAAAAAAAAAAAAAAAAAAAAAAAAAAAAAAAAAAAAAAAAAAAAAAAAAAAAAAAAAAAAAAAAAAAAAAAAAAAAAAAAAAAAAAAAAAAAAAAAAAAAAAAAAAAAAAAAAAAAAAAAAAAAAAAAAAAAAAAAAAAAAAAAAAAAAAAAAAAAAAAAAAAAAAAAAAAAAAAAAAAAAAAAAAAAAAAAAAAAAAAAAAAAAAAAAAAAAAAAAAAAAAAAAAAAAAAAAAAAAAAAAAAAAAAAAAAAAAAAAAAAAAAAAAAAAAAAAAAAAAAAAAAAAAAAAAAAAAAAAAAAAAAAAAAAAAAAAAAAAAAAAAAAAAAAAAAAAAAAAAAAAAAAAAAAAAAAAAAAAAAAAAAAAAAAAAAAAAAAAAAAAAAAAAAAAAAAAAAAAAAAAAAAAAAAAAAAAAAAAAAAAAAAAAAAAAAAAAAAAAAAAAAAAAAAAAAAAAAAAAAAAAAAAAAAAAAAAAAAAAAAAAAAAAAAAAAAAAAAAAAAAAAAAAAAAAAAAAAAAAAAAAAAAAAAAAAAAAAAAAAAAAAAAAAAAAAAAAAAAAAAAAAAAAAAAAAAAAAAAAAAAAAAAAAAAAAAAAAAAAAAAAAAAAAAAAAAAAAAAAAAAAAAAAAAAAAAAAAAAAAAAAAAAAAAAAAAAAAAAAAAAAAAAAAAAAAAAAAAAAAAAAAAAAAAAAAAAAAAAAAAAAAAAAAAAAAAAAAAAAAAAAAAAAAAAAAAAAAAAAAAAAAAAAAAAAAAAAAAAAAAAAAAAAAAAAAAAAAAAAAAAAAAAAAAAAAAAAAAAAAAAAAAAAAAAAAAAAAAAAAAAAAAAAAAAAAAAAAAAAAAAAAAAAAAAAAAAAAAAAAAAAAAAAAAAAAAAAAAAAAAAAAAAAAAAAAAAAAAAAAAAAAAAAAAAAAAAAAAAAAAAAAAAAAAAAAAAAAAAAAAAAAAAAAAAAAAAAAAAAAAAAAAAAAAAAAAAAAAAAAAAAAAAAAAAAAAAAAAAAAAAAAAAAAAAAAAAAAAAAAAAAAAAAAAAAAAAAAAAAAAAAAAAAAAAAAAAAAAAAAAAAAAAAAAAAAAAAAAAAAAAAAAAAAAAAAAAAAAAAAAAAAAAAAAAAAAAAAAAAAAAAAAAAAAAAAAAAAAAAAAAAAAAAAAAAAAAAAAAAAAAAAAAAAAAAAAAAAAAAAAAAAAAAAAAAAAAAAAAAAAAAAAAAAAAAAAAAAAAAAAAAAAAAAAAAAAAAAAAAAAAAAAAAAAAAAAAAAAAAAAAAAAAAAAAAAAAAAAAAAAAAAAAAAAAAAAAAAAAAAAAAAAAAAAAAAAAAAAAAAAAAAAAAAAAAAAAAAAAAAAAAAAAAAAAAAAAAAAAAAAAAAAAAAAAAAAAAAAAAAAAAAAAAAAAAAAAAAAAAAAAAAAAAAAAAAAAAAAAAAAAAAAAAAAAAAAAAAAAAAAAAAAAAAAAAAAAAAAAAAAAAAAAAAAAAAAAAAAAAAAAAAAAAAAAAAAAAAAAAAAAAAAAAAAAAAAAAAAAAAAAAAAAAAAAAAAAAAAAAAAAAAAAAAAAAAAAAAAAAAAAAAAAAAAAAAAAAAAAAAAAAAAAAAAAAAAAAAAAAAAAAAAAAAAAAAAAAAAAAAAAAAAAAAAAAAAAAAAAAAAAAAAAAAAAAAAAAAAAAAAAAAAAAAAAAAAAAAAAAAAAAAAAAAAAAAAAAAAAAAAAAAAAAAAAAAAAAAAAAAAAAAAAAAAAAAAAAAAAAAAAAAAAAAAAAAAAAAAAAAAAAAAAAAAAAAAAAAAAAAAAAAAAAAAAAAAAAAAAAAAAAAAAAAAAAAAAAAAAAAAAAAAAAAAAAAAAAAAAAAAAAAAAAAAAAAAAAAAAAAAAAAAAAAAAAAAAAAAAAAAAAAAAAAAAAAAAAAAAAAAAAAAAAAAAAAAAAAAAAAAAAAAAAAAAAAAAAAAAAAAAAAAAAAAAAAAAAAAAAAAAAAAAAAAAAAAAAAAAAAAAAAAAAAAAAAAAAAAAAAAAAAAAAAAAAAAAAAAAAAAAAAAAAAAAAAAAAAAAAAAAAAAAAAAAAAAAAAAAAAAAAAAAAAAAAAAAAAAAAAAAAAAAAAAAAAAAAAAAAAAAAAAAAAAAAAAAAAAAAAAAAAAAAAAAAAAAAAAAAAAAAAAAAAAAAAAAAAAAAAAAAAAAAAAAAAAAAAAAAAAAAAAAAAAAAAAAAAAAAAAAAAAAAAAAAAAAAAAAAAAAAAAAAAAAAAAAAAAAAAAAAAAAAAAAAAAAAAAAAAAAAAAAAAAAAAAAAAAAAAAAAAAAAAAAAAAAAAAAAAAAAAAAAAAAAAAAAAAAAAAAAAAAAAAAAAAAAAAAAAAAAAAAAAAAAAAAAAAAAAAAAAAAAAAAAAAAAAAAAAAAAAAAAAAAAAAAAAAAAAAAAAAAAAAAAAAAAAAAAAAAAAAAAAAAAAAAAAAAAAAAAAAAAAAAAAAAAAAAAAAAAAAAAAAAAAAAAAAAAAAAAAAAAAAAAAAAAAAAAAAAAAAAAAAAAAAAAAAAAAAAAAAAAAAAAAAAAAAAAAAAAAAAAAAAAAAAAAAAAAAAAAAAAAAAAAAAAAAAAAAAAAAAAAAAAAAAAAAAAAAAAAAAAAAAAAAAAAAAAAAAAAAAAAAAAAAAAAAAAAAAAAAAAAAAAAAAAAAAAAAAAAAAAAAAAAAAAAAAAAAAAAAAAAAAAAAAAAAAAAAAAAAAAAAAAAAAAAAAAAAAAAAAAAAAAAAAAAAAAAAAAAAAAAAAAAAAAAAAAAAAAAAAAAAAAAAAAAAAAAAAAAAAAAAAAAAAAAAAAAAAAAAAAAAAAAAAAAAAAAAAAAAAAAAPZYQIeXADe9xkRH64teJaKixZ3srHL5bCeQ3fy8zffKaT9WjeW0+avevsH5yMaAGZjGh9k8rGqXg9Gorw9PWN4gYyw=</c2pa:manifest></metadata>
<path transform="translate(0,0)" fill="rgb(255,255,255)" d="M 0 0 L 2048 0 L 2048 2048 L 0 2048 L 0 0 z"/>
<path transform="translate(0,0)" fill="rgb(0,0,0)" d="M 1005.28 779.401 C 1005.88 779.328 1006.47 779.255 1007.06 779.182 C 1182 767.414 1322.29 943.661 1339.35 1099.79 C 1373.47 1063.57 1408.82 1020.87 1450.17 992.725 C 1456.12 989.423 1465.69 985.899 1472.41 986.05 C 1531.64 987.383 1510.3 1077.93 1501.03 1108.59 C 1481.14 1174.45 1452.78 1239.11 1416.85 1296.69 C 1395.9 1330.43 1371.99 1362.23 1345.4 1391.73 C 1368.54 1463.29 1380.67 1535.25 1365.42 1610 C 1352.98 1673.33 1319.35 1730.53 1270.09 1772.21 C 1253.99 1785.72 1239.99 1794.51 1222.6 1805.93 C 1242.01 1814.18 1255.13 1820.64 1271.52 1833.86 C 1305.92 1861.6 1309.35 1894.98 1261.83 1909.72 C 1243.5 1915.4 1229.9 1916.75 1210.38 1917.13 C 1189.89 1938.87 1155.7 1940.08 1128.62 1932.46 C 1090.49 1921.63 1058.29 1896 1039.18 1861.28 C 1034.19 1853.06 1022.78 1855.39 1013.69 1855.34 C 997.816 1883.66 980.103 1904.01 950.968 1920.03 C 918.462 1937.9 868.163 1945.55 839.221 1916.9 C 811.903 1917.54 736.876 1908.27 754.752 1863.32 C 766.301 1834.28 800.526 1818.29 827.757 1806.91 C 781.018 1783.74 735.83 1735.58 712.205 1689.41 C 661.43 1590.19 671.49 1493.59 703.339 1391.72 C 698.45 1385.3 690.716 1377.03 685.296 1370.61 C 675.243 1358.75 665.743 1346.43 656.826 1333.7 C 600.619 1253.54 546.699 1144.4 535.514 1045.22 C 533.755 1029.62 538.035 1007.44 549.153 996.02 C 575.777 968.681 614.814 1002.3 634.578 1021.81 C 661.359 1047.24 683.986 1075.44 709.479 1101.39 C 721.971 1018.41 746.305 957.948 800.831 892.549 C 852.604 830.452 923.878 787.045 1005.28 779.401 z"/>
<path transform="translate(0,0)" fill="rgb(255,255,255)" d="M 1040.99 1068.34 C 1031.02 956.972 1123.39 874.101 1211.05 972.809 C 1257.37 1024.96 1272.07 1095.69 1248.83 1161.46 C 1229.54 1216.06 1190.4 1243.92 1148.93 1279.89 C 1190.28 1342.51 1224.35 1417.42 1239.16 1491.22 C 1249.67 1556.06 1245.16 1620.31 1211.74 1678.65 C 1184.09 1727.46 1137.88 1763.02 1083.61 1777.23 C 1024.89 1793.06 962.294 1784.98 909.525 1754.75 C 861.088 1726.46 826.501 1674.81 813.247 1621.01 C 782.079 1494.47 837.849 1382.59 899.835 1277.51 C 846.147 1234.12 805.368 1198.75 792.781 1126.27 C 779.591 1050.32 827.9 942.057 910.685 929.298 C 933.577 926.352 959.017 937.58 974.646 953.96 C 1004.37 985.114 1011.15 1026.16 1010.97 1067.44 C 975.094 1076.64 960.11 1090.36 937.975 1118.26 C 945.74 1144.78 968.835 1170.76 994.991 1180.19 C 1016.4 1187.87 1039.99 1186.7 1060.53 1176.92 C 1086.06 1164.57 1101.71 1143.57 1110.87 1117.38 C 1087.81 1092.27 1075.14 1077.72 1040.99 1068.34 z"/>
<path transform="translate(0,0)" fill="rgb(0,0,0)" d="M 892.6 993.084 C 921.364 988.593 948.306 1008.32 952.711 1037.1 C 957.116 1065.87 937.309 1092.76 908.518 1097.08 C 879.849 1101.38 853.105 1081.67 848.719 1053.01 C 844.332 1024.36 863.957 997.556 892.6 993.084 z"/>
<path transform="translate(0,0)" fill="rgb(255,255,255)" d="M 906.772 1003.17 C 910.871 1002.79 913.89 1002.25 918.011 1002.94 C 929.232 1004.81 936.322 1016.7 933.815 1027.5 C 932.554 1032.75 929.136 1037.22 924.403 1039.82 C 923.367 1040.39 922.331 1040.96 921.295 1041.52 C 888.941 1047.62 887.52 1012.84 906.772 1003.17 z"/>
<path transform="translate(0,0)" fill="rgb(255,255,255)" d="M 928.667 1049.22 C 931.006 1047.89 933.887 1047.93 936.184 1049.34 C 938.481 1050.74 939.83 1053.29 939.703 1055.98 C 939.577 1058.67 937.995 1061.08 935.577 1062.26 C 931.997 1064.02 927.671 1062.61 925.805 1059.09 C 923.939 1055.57 925.206 1051.2 928.667 1049.22 z"/>
<path transform="translate(0,0)" fill="rgb(0,0,0)" d="M 1135.14 993.585 C 1163.81 988.922 1190.8 1008.45 1195.34 1037.14 C 1199.88 1065.83 1180.23 1092.74 1151.52 1097.16 C 1122.99 1101.54 1096.28 1082.04 1091.77 1053.53 C 1087.26 1025.01 1106.65 998.22 1135.14 993.585 z"/>
<path transform="translate(0,0)" fill="rgb(255,255,255)" d="M 1153.97 1002.44 C 1164.89 1000.86 1175.04 1008.39 1176.7 1019.3 C 1178.37 1030.21 1170.92 1040.41 1160.03 1042.16 C 1149.01 1043.93 1138.66 1036.39 1136.98 1025.35 C 1135.3 1014.32 1142.92 1004.03 1153.97 1002.44 z"/>
<path transform="translate(0,0)" fill="rgb(255,255,255)" d="M 1172.91 1048.35 C 1175.44 1047.75 1178.09 1048.6 1179.8 1050.55 C 1181.52 1052.49 1182.02 1055.23 1181.12 1057.66 C 1180.21 1060.09 1178.04 1061.83 1175.46 1062.17 C 1171.74 1062.68 1168.28 1060.17 1167.6 1056.48 C 1166.92 1052.79 1169.26 1049.21 1172.91 1048.35 z"/>
<path transform="translate(0,0)" fill="rgb(255,255,255)" d="M 1469.47 1003.17 C 1509.13 999.528 1490.75 1078.98 1485.25 1099.93 C 1453.98 1218.97 1376.3 1335.93 1295.09 1427.02 C 1305.69 1422.51 1314.26 1417.89 1324.28 1412.41 C 1345.79 1490.28 1359.17 1553.53 1334.63 1634.34 C 1313.84 1701.8 1266.94 1758.16 1204.37 1790.86 C 1055.34 1869.93 817.457 1842.58 732.858 1680.28 C 686.602 1591.55 695.906 1504.73 724.9 1413.35 L 754.778 1428.54 C 744.274 1415.05 731.941 1402.07 721.007 1388.75 C 700.562 1363.69 681.282 1337.7 663.229 1310.87 C 619.281 1244.94 581.965 1175.29 562.143 1098.3 C 556.322 1075.69 549.719 1046.99 554.343 1023.82 C 558.503 1008.19 570.93 996.859 586.523 1007.47 C 626.317 1034.55 657.234 1073.7 689.805 1108.62 C 713.756 1134.3 740.43 1157.84 762.01 1185.62 C 773.074 1199.91 784.007 1213.62 796.967 1226.28 C 822.247 1250.98 850.499 1269.6 881.124 1286.85 C 854.918 1333.78 831.161 1375.87 814.505 1427.62 C 788.459 1508.54 782.862 1596.26 822.021 1674.39 C 849.311 1728.84 891.463 1765.35 949.172 1784.18 C 1005.35 1802.51 1077.56 1798.48 1130.05 1771.41 C 1183.76 1743.05 1223.98 1694.49 1241.85 1636.44 C 1269.89 1546.74 1249.65 1456.24 1212.04 1372.69 C 1198.69 1343.04 1183.79 1319.07 1169.11 1290.91 C 1197.85 1272.49 1221.6 1256.55 1246.11 1232.41 C 1266.7 1212.11 1281.88 1189.42 1300.57 1168.45 C 1320.32 1146.31 1343.67 1124.06 1363.94 1102.29 C 1388.3 1076.12 1437.11 1016.12 1469.47 1003.17 z"/>
<path transform="translate(0,0)" fill="rgb(255,255,255)" d="M 747.48 1148.93 C 739.7 1115.62 742.805 1071.56 750.709 1038.22 C 775.657 932.966 859.835 839.586 964.517 809.569 C 1114.82 766.469 1268.49 900.72 1300.63 1042.02 C 1308.47 1076.97 1308.66 1113.2 1301.19 1148.23 C 1283.22 1167.35 1275.49 1180.19 1259.86 1199.72 C 1240.53 1223.87 1209.1 1249.15 1184.37 1267.51 L 1182.49 1266.43 C 1232.22 1220.14 1267.46 1180.27 1270.05 1107.31 C 1271.49 1053.01 1251.41 1000.35 1214.19 960.798 C 1138.16 879.586 1046.19 922.578 1031.63 1026.66 C 1030.35 1035.79 1030.03 1044.39 1029.92 1053.59 L 1029.82 1065.36 C 1027.23 1067.22 1027.26 1066.51 1023.26 1066.37 C 1021.11 1064.72 1021.25 1064.69 1021.02 1061.64 C 1020.14 1049.97 1021.29 1037.8 1019.21 1026.24 C 998.662 912.018 898.586 879.575 824.246 972.728 C 790.495 1014.96 775.18 1069.01 781.758 1122.67 C 785.809 1157.35 798.935 1187.87 819.86 1215.81 C 835.927 1237.26 856.863 1252.43 874.997 1271.43 C 849.09 1255.72 809.454 1225.23 790.295 1201.79 C 775.157 1183.27 764.902 1167.76 747.48 1148.93 z"/>
<path transform="translate(0,0)" fill="rgb(255,255,255)" d="M 854.191 1817.06 C 860.07 1816.52 872.82 1821.71 878.889 1824.09 C 915.895 1838.55 952.907 1845.36 992.316 1850.16 C 969.538 1881.53 945.706 1902.29 908.209 1912.96 C 885.644 1918.7 856.725 1917.99 844.262 1894.97 C 823.755 1894.93 809.842 1893.29 790.22 1887.62 C 760.161 1878.94 777.71 1859.89 792.957 1847.49 C 810.994 1832.83 832.621 1824.67 854.191 1817.06 z"/>
<path transform="translate(0,0)" fill="rgb(255,255,255)" d="M 1190.75 1817.05 C 1202.32 1817.86 1229.44 1829.67 1239.34 1835.65 C 1257.55 1846.65 1270.75 1856.23 1276.65 1877.19 C 1257.14 1891.66 1227.83 1893.71 1204.44 1894.54 C 1193.47 1916.73 1165.24 1917.48 1143.89 1913.59 C 1142.86 1913.38 1141.84 1913.16 1140.82 1912.92 C 1106.49 1905.2 1074.61 1878.75 1056.27 1849.37 C 1071.29 1847.06 1086.03 1845.98 1101.41 1843.32 C 1133.55 1837.77 1160.42 1828.55 1190.75 1817.05 z"/>
<path transform="translate(0,0)" fill="rgb(255,255,255)" d="M 1021.92 1077.38 C 1052.93 1076.44 1080.97 1096.42 1098.37 1120.72 C 1077.41 1139.75 1056.65 1139.8 1029.21 1140.83 C 1021.6 1140.89 1014 1140.76 1006.39 1140.46 C 983.39 1139.62 966.266 1137.93 949.935 1120.36 C 966.048 1094.43 992.128 1080.64 1021.92 1077.38 z"/>
<path transform="translate(0,0)" fill="rgb(255,255,255)" d="M 1083.25 1143.01 L 1084.16 1143.02 L 1084.61 1144.08 C 1055.07 1179.22 1015.66 1184.93 977.876 1158.57 C 971.46 1153.42 967.947 1149.51 962.492 1143.38 C 990.729 1154.2 1055.1 1154.36 1083.25 1143.01 z"/>
<path transform="translate(0,0)" fill="rgb(178,178,182)" d="M 1182.49 1266.43 L 1184.37 1267.51 C 1182.54 1268.94 1181.15 1269.96 1179.24 1271.29 L 1178.36 1269.88 C 1179.81 1268.64 1180.98 1267.6 1182.49 1266.43 z"/>
<path transform="translate(0,0)" fill="rgb(82,83,87)" d="M 1179.24 1271.29 C 1175.01 1275.28 1171.42 1274.91 1178.36 1269.88 L 1179.24 1271.29 z"/>
<path transform="translate(0,0)" fill="rgb(0,0,0)" d="M 1004.99 116.445 C 1019.93 115.586 1038.49 116.282 1053.42 116.893 C 1163.93 122.447 1271.66 153.493 1368.17 207.601 C 1536.49 301.906 1659.96 459.768 1710.95 645.847 C 1757.26 646.549 1791.75 666.051 1810.6 709.511 C 1841.51 708.928 1878.03 720.887 1884.77 755.464 C 1887.2 767.714 1884.33 780.42 1876.87 790.437 C 1866.93 804.051 1849.4 812.731 1833.05 815.492 C 1815.95 846.85 1792.27 861.887 1756.26 864.87 C 1729.74 867.067 1711.44 859.469 1688.67 847.189 C 1664.64 865.819 1642.17 875.923 1610.89 872.59 C 1587.55 869.881 1566.2 858.107 1551.46 839.807 C 1541.93 843.621 1534.42 846.389 1524.13 847.727 C 1504.08 850.4 1483.8 844.915 1467.83 832.501 C 1453.67 821.653 1444.4 805.617 1442.08 787.929 C 1439.89 771.272 1444.6 754.446 1455.11 741.339 C 1470.15 722.74 1487.35 717.838 1510.08 715.572 C 1510.7 711.637 1511.64 707.759 1512.89 703.978 C 1520.87 680.343 1538.13 667.682 1559.37 657.035 C 1543.59 591.007 1484.65 500.148 1439.43 450.2 C 1337.55 338.337 1195.12 271.923 1043.93 265.784 C 1028.06 264.516 1006.6 265.741 990.645 266.785 C 911.117 271.449 833.465 292.825 762.755 329.519 C 630.899 399.24 531.645 517.89 486.308 659.987 C 505.539 671 521.932 688.833 529.777 709.651 C 536.938 709.774 544.145 709.608 551.232 710.774 C 573.852 714.494 597.428 729.204 603.544 752.518 C 606.508 764.22 604.722 776.62 598.578 787.012 C 588.1 804.638 570.652 811.279 551.878 815.641 C 533.136 861.455 472.59 874.788 429.834 858.161 C 421.642 854.975 415.523 851.604 407.953 847.117 C 364.152 881.063 312.072 882.914 271.866 842.335 C 242.339 853.287 215.904 854.096 189.811 834.176 C 175.063 822.892 165.419 806.197 163.01 787.784 C 160.814 771.28 165.387 754.588 175.688 741.508 C 190.549 722.801 208.839 717.721 231.291 714.992 C 240.615 672.711 276.026 649.259 318.516 652.979 C 324.969 653.544 331.177 654.936 337.498 656.272 C 366.872 540.599 424.375 433.976 504.895 345.887 C 634.517 206.04 814.439 123.493 1004.99 116.445 z"/>
<path transform="translate(0,0)" fill="rgb(255,255,255)" d="M 1011.06 137.495 C 1133.22 132.631 1259.08 168.893 1364.9 228.626 C 1525.03 319.742 1642.61 470.511 1691.97 648.017 C 1671.9 652.045 1659.91 658.767 1643.44 670.755 C 1623.56 652.631 1604.42 650.11 1578.47 652.211 C 1552.83 571.606 1499.96 485.78 1441.45 425.123 C 1330.73 310.346 1189.45 249.452 1030.59 245.94 C 796.139 243.344 581.734 386.055 489.727 600.506 C 482.413 617.555 475.522 633.97 470.123 651.744 C 430.205 641.823 395.997 645.392 362.819 671.272 L 354.283 663.895 C 356.551 647.075 364.321 623.813 369.747 607.496 C 397.732 523.34 448.772 434.508 508.808 368.755 C 612.101 253.491 750.831 175.898 903.11 148.217 C 941.579 141.412 972.448 139.264 1011.06 137.495 z"/>
<path transform="translate(0,0)" fill="rgb(255,255,255)" d="M 1706.53 663.372 C 1748.12 658.112 1786.31 685.029 1798.81 724.397 C 1816.65 723.203 1833.04 723.119 1849.08 732.414 C 1876.52 748.324 1875.78 781.027 1847.17 795.061 C 1838.07 799.521 1832.02 800.926 1821.98 802.756 C 1798.93 852.627 1726.98 865.336 1689.73 823.432 C 1668.29 847.049 1641.29 856.831 1609.77 853.9 C 1605.86 853.276 1601.97 852.454 1598.14 851.436 C 1580.89 846.746 1564.61 835.951 1555.57 820.278 C 1528.78 833.884 1498.65 840.091 1474.24 816.99 C 1464.21 807.656 1458.42 794.632 1458.22 780.93 C 1458.19 767.931 1463.29 755.447 1472.41 746.183 C 1486.06 732.39 1504.25 728.745 1522.82 728.9 C 1525.94 709.626 1530.03 696.277 1545.7 682.954 C 1560.01 670.922 1578.6 665.221 1597.19 667.161 C 1617.16 669.098 1631.36 678.392 1643.75 693.593 C 1663.58 674.206 1678.75 666.44 1706.53 663.372 z"/>
<path transform="translate(0,0)" fill="rgb(255,255,255)" d="M 428.68 663.418 C 445.912 662.558 463.057 666.358 478.312 674.418 C 498.907 685.56 510.956 701.999 517.628 724.12 C 536.048 723.063 550.736 722.872 567.571 732.218 C 584.784 741.774 596.461 761.143 584.101 779.641 C 574.075 794.645 557.406 800.21 540.423 803.399 C 525.839 842.046 468.966 857.51 433.659 841.698 C 422.458 836.681 416.802 832.377 408.024 824.002 C 385.523 848.004 357.651 858.595 325.019 853.762 C 323.121 853.396 321.231 852.991 319.349 852.549 C 299.858 847.908 285.823 837.63 275.345 820.773 C 261.892 827.645 252.869 832.463 237.461 832.894 C 204.5 834.249 171.869 804.803 180.604 770.217 C 188.239 739.989 214.58 729.221 242.607 730.237 C 245.478 712.221 249.678 697.74 263.796 685.034 C 290.077 661.379 332.73 660.948 356.982 688.023 L 363.474 695.171 C 364.335 694.039 365.224 692.928 366.139 691.84 C 382.268 672.753 404.524 665.534 428.68 663.418 z"/>
</svg>